<svg version="1.1" id="Layer_1" xmlns="http://www.w3.org/2000/svg" xmlns:xlink="http://www.w3.org/1999/xlink" x="0px" y="0px"
	 width="100%" viewBox="0 0 1536 1024" enable-background="new 0 0 1536 1024" xml:space="preserve">
<path fill="#000000" opacity="1.000000" stroke="none" 
	d="
M822.000000,1025.000000 
	C548.000000,1025.000000 274.500000,1025.000000 1.000000,1025.000000 
	C1.000000,683.666687 1.000000,342.333344 1.000000,1.000000 
	C513.000000,1.000000 1025.000000,1.000000 1537.000000,1.000000 
	C1537.000000,342.333344 1537.000000,683.666687 1537.000000,1025.000000 
	C1298.833374,1025.000000 1060.666626,1025.000000 822.000000,1025.000000 
M1083.066284,313.062286 
	C1083.066284,313.062286 1083.088257,313.044159 1083.629395,313.010864 
	C1083.771606,312.702881 1083.913818,312.394897 1084.044800,312.040039 
	C1084.044800,312.040039 1084.087524,312.062714 1084.651001,312.038849 
	C1084.813843,311.720428 1084.976685,311.402008 1085.043823,311.096191 
	C1085.043823,311.096191 1085.146484,311.100983 1085.727173,310.782043 
	C1094.145630,304.450500 1102.563965,298.118958 1110.466431,292.175476 
	C1107.609497,291.510590 1103.814697,290.627411 1100.019897,289.744232 
	C1100.152100,289.248077 1100.284302,288.751923 1100.416504,288.255768 
	C1109.195557,286.915619 1117.974487,285.575439 1128.013550,284.042877 
	C1125.199463,281.937744 1123.433105,280.616455 1121.183472,278.933655 
	C1131.994873,275.911438 1142.483765,272.979340 1152.972656,270.047272 
	C1147.365234,267.950409 1141.633911,266.627960 1135.828003,265.897949 
	C1122.922729,264.275146 1109.857056,263.259216 1097.437256,267.961426 
	C1091.363525,270.261017 1085.684204,274.022980 1080.407959,277.911987 
	C1072.045776,284.075562 1067.139282,292.722656 1064.477783,303.087097 
	C1064.637817,303.425934 1064.797974,303.764740 1064.994141,304.493347 
	C1064.994141,304.493347 1064.945190,304.881744 1064.271973,305.294617 
	C1063.359497,309.888367 1062.446899,314.482086 1061.655396,318.467010 
	C1058.581543,313.283264 1055.230713,307.632324 1051.812500,301.301361 
	C1046.416504,296.490906 1041.571411,290.776794 1035.499146,287.076019 
	C1025.719360,281.115784 1014.677551,279.456238 1003.041565,279.844482 
	C985.840027,280.418427 971.335999,286.845581 958.323792,298.413940 
	C961.034790,298.215881 963.745850,298.017822 967.305359,297.903687 
	C975.555176,298.062958 983.804932,298.222198 991.561829,298.810608 
	C990.050903,299.984863 988.539978,301.159088 987.029053,302.333313 
	C987.252808,302.772125 987.476501,303.210938 987.700256,303.649750 
	C990.799805,303.260925 993.890747,302.664856 997.001038,302.536713 
	C1000.718750,302.383545 1004.613708,301.976807 1008.145508,302.844879 
	C1014.830872,304.488037 1021.311890,306.962524 1028.150513,309.752014 
	C1032.502563,312.660400 1036.854736,315.568756 1041.120239,318.730988 
	C1041.120239,318.730988 1041.011353,318.976166 1040.198853,318.896942 
	C1036.126343,317.989136 1032.053711,317.081299 1027.115112,316.067047 
	C1026.283203,316.048492 1025.424072,316.159576 1024.623291,315.992004 
	C1011.089294,313.159821 998.157532,315.404388 985.996887,321.432770 
	C967.995483,330.356628 956.526733,345.167664 949.993286,363.885895 
	C948.393860,368.468262 947.820435,373.408783 946.566833,379.137238 
	C958.499817,368.662384 969.473633,359.029541 980.447388,349.396698 
	C980.766846,349.681488 981.086304,349.966278 981.405701,350.251068 
	C980.393127,354.190430 979.380615,358.129761 978.122498,363.024231 
	C980.170044,362.158295 981.433228,361.884735 982.377136,361.182190 
	C988.123413,356.905426 993.669800,352.348755 999.539246,348.252899 
	C1003.500000,345.488953 1007.882141,343.328979 1011.791382,341.544403 
	C1010.520813,343.630066 1009.250244,345.715729 1007.979675,347.801392 
	C1008.279907,348.175018 1008.580139,348.548645 1008.880371,348.922272 
	C1022.833679,342.058563 1037.388672,337.957184 1053.072144,338.518188 
	C1037.421143,341.906067 1025.159058,350.099457 1016.958801,363.776276 
	C1008.337952,378.154388 1009.346985,395.590027 1016.316223,408.299652 
	C1020.939819,400.434387 1025.320435,392.982452 1029.844482,385.286530 
	C1031.316162,387.493958 1032.822021,389.752747 1035.163452,393.264832 
	C1039.150269,382.538452 1042.639648,373.150085 1046.119385,363.787994 
	C1047.336426,366.760529 1048.621460,369.899170 1050.197021,373.746979 
	C1051.915405,371.644012 1053.056030,370.454224 1053.959595,369.105591 
	C1057.291504,364.132416 1060.545044,359.106628 1063.964478,354.958710 
	C1063.988159,356.283112 1063.913086,357.617920 1064.051147,358.930298 
	C1065.344238,371.216888 1067.143799,383.472443 1067.857300,395.791412 
	C1068.537231,407.529785 1068.094849,419.333160 1067.980713,431.994263 
	C1067.318237,441.652466 1066.950195,451.342957 1065.895508,460.958160 
	C1065.120972,468.020325 1063.447021,474.983795 1062.015747,482.818542 
	C1061.059570,487.178925 1060.103516,491.539337 1058.970215,496.706268 
	C1058.592896,498.806305 1058.215576,500.906311 1057.194824,503.389343 
	C1055.814575,508.845520 1054.434326,514.301697 1052.347656,520.112549 
	C1051.615356,522.835754 1050.882935,525.559021 1049.695312,528.833496 
	C1048.111328,532.792847 1046.626831,536.795654 1044.921875,540.702209 
	C1041.725342,548.026123 1038.401123,555.294250 1034.237915,562.946167 
	C1026.428589,562.928467 1018.619385,562.910706 1010.609131,562.160583 
	C1007.450378,549.877502 1004.223450,537.611450 1001.161011,525.304382 
	C999.568542,518.904846 998.266724,512.432983 996.713928,505.242401 
	C996.145447,503.433594 995.512695,501.642090 995.019531,499.812958 
	C992.607544,490.867004 990.232666,481.911011 987.980286,472.147736 
	C986.563843,466.197906 985.224060,460.228577 983.715820,454.302094 
	C979.861816,439.157684 975.858948,424.050690 972.098389,408.883392 
	C971.376221,405.970612 970.079651,404.045380 967.086609,404.012848 
	C957.449158,403.908051 947.807617,403.887817 938.174377,404.117798 
	C937.074890,404.144043 935.603516,405.759827 935.015686,406.980896 
	C932.851440,411.476807 930.988098,416.117493 929.008545,420.702362 
	C921.630005,437.791290 914.250488,454.879700 906.223328,472.320618 
	C900.465698,485.853851 894.708069,499.387054 888.978394,512.964539 
	C888.978394,512.964539 888.929749,512.945557 888.342468,513.185913 
	C888.278259,513.792053 888.214111,514.398193 887.810425,515.658936 
	C879.286682,535.138000 870.762939,554.617065 861.873413,574.931946 
	C871.535217,574.931946 879.705933,575.426392 887.784790,574.777466 
	C894.402344,574.245972 899.910095,571.210693 901.051575,563.568420 
	C901.163086,562.821655 901.795532,562.166809 902.091614,561.431335 
	C905.087219,553.987976 908.063171,546.536743 911.972595,539.019409 
	C928.836426,539.024963 945.700500,538.990051 962.563721,539.093689 
	C964.411804,539.105042 966.255066,539.911804 967.999390,541.130127 
	C968.335266,542.695007 968.623169,544.271973 969.014954,545.822693 
	C971.026428,553.785461 973.064575,561.741516 974.373840,570.103394 
	C952.351624,576.764221 930.971802,584.808044 912.037720,598.117493 
	C912.113159,598.635803 912.188599,599.154175 912.264099,599.672485 
	C914.867249,600.062012 917.470459,600.451538 920.760620,601.230225 
	C932.158936,603.862854 943.557312,606.495422 955.358398,609.809326 
	C963.275696,611.389893 971.141846,613.324219 979.120972,614.477356 
	C995.694885,616.872559 1012.328674,618.853577 1029.400269,621.736572 
	C1033.825073,622.137817 1038.253174,622.914795 1042.673950,622.874390 
	C1060.432007,622.712219 1078.194214,622.499084 1095.942261,621.916443 
	C1112.632568,621.368408 1128.994995,618.371887 1145.083130,613.960144 
	C1153.461792,611.662476 1161.769409,609.105347 1170.770386,606.471924 
	C1168.697998,604.763733 1167.677612,603.743103 1166.493042,602.976074 
	C1159.766235,598.620178 1153.000366,594.324829 1145.904663,589.357300 
	C1139.684570,586.235840 1133.464355,583.114380 1126.888428,579.294739 
	C1111.696045,574.521606 1096.496460,569.771057 1081.328369,564.921692 
	C1080.370850,564.615540 1079.659424,563.539429 1079.019165,562.069702 
	C1081.951050,547.708679 1084.883057,533.347595 1087.949219,518.137268 
	C1088.609741,508.510437 1089.270142,498.883636 1090.758301,488.847107 
	C1090.866577,475.121643 1090.990356,461.396210 1091.034180,447.670532 
	C1091.036255,447.028748 1090.325195,446.384674 1089.992798,444.855194 
	C1089.607544,440.571564 1089.222290,436.287903 1088.979736,431.100769 
	C1088.323120,425.436676 1087.890747,419.735565 1086.964111,414.115997 
	C1084.909058,401.653229 1082.974487,389.151123 1080.288818,376.817902 
	C1078.110107,366.812988 1074.907959,357.030945 1072.860474,347.111633 
	C1079.781006,351.630554 1086.701538,356.149475 1093.715332,360.729340 
	C1093.897705,359.447571 1094.074097,358.207977 1094.309082,356.555878 
	C1101.129883,364.994080 1107.572998,372.964905 1114.897949,382.026825 
	C1115.966553,375.742371 1116.807861,370.795135 1117.814575,364.875275 
	C1122.133789,373.040222 1126.079102,380.498413 1130.097412,388.094574 
	C1130.914551,386.631226 1131.584839,385.430908 1132.494873,383.801453 
	C1137.953735,392.731567 1143.149658,401.231415 1148.626099,410.190399 
	C1154.580322,392.911591 1151.749023,377.072144 1143.078857,362.293274 
	C1129.127319,338.511688 1105.902954,333.999359 1080.918945,332.697632 
	C1088.619751,332.423584 1096.320435,332.149506 1104.835205,332.015808 
	C1114.013184,334.789978 1123.191162,337.564178 1132.520874,340.384247 
	C1131.719604,337.053894 1130.870117,333.523529 1130.366455,329.776672 
	C1130.366455,329.776672 1130.687134,329.524536 1131.210815,329.970642 
	C1141.047607,335.439728 1149.450562,343.497589 1160.901611,347.347473 
	C1160.145996,343.151825 1159.572754,339.968781 1159.233032,338.082733 
	C1169.340088,342.849487 1179.716553,347.743286 1191.058105,353.092255 
	C1190.796875,350.752136 1190.919922,349.744324 1190.561157,348.955627 
	C1184.617920,335.894196 1175.890991,325.000092 1164.052124,316.929871 
	C1146.615601,305.043884 1127.081665,302.630249 1106.802490,306.301666 
	C1098.471069,307.810059 1090.353027,310.884186 1083.149048,316.918518 
	C1081.612671,317.901123 1080.076294,318.883698 1078.539917,319.866302 
	C1078.323364,319.575928 1078.106812,319.285553 1077.890259,318.995178 
	C1079.367676,317.369690 1080.845215,315.744202 1082.759644,313.942108 
	C1083.043213,313.719299 1083.139160,313.433167 1083.066284,313.062286 
M557.995361,635.976257 
	C556.517639,636.040283 555.021423,635.977356 553.565063,636.188477 
	C542.382690,637.809753 531.208008,639.484375 519.217590,641.309021 
	C505.346588,642.537903 491.494843,644.399780 477.599335,644.821716 
	C463.047821,645.263550 448.440979,644.593140 433.884644,643.875549 
	C426.284576,643.500977 418.745544,641.943970 411.170380,640.988953 
	C405.680969,640.296936 400.177460,639.716736 393.364044,638.935791 
	C395.364014,640.075073 396.151398,640.597046 396.997253,640.994690 
	C424.952667,654.135803 454.810303,658.668335 485.268860,659.884460 
	C496.821075,660.345703 508.441437,659.500793 520.013794,658.916321 
	C527.694885,658.528320 535.345947,657.546021 543.866333,656.973328 
	C562.219788,653.273682 580.573242,649.573975 599.737000,646.021912 
	C621.442383,639.997925 643.147766,633.973938 664.853210,627.950012 
	C662.975464,626.916992 661.244385,626.915894 659.513367,626.917236 
	C645.024475,626.928284 630.513123,626.451050 616.054382,627.117371 
	C605.849731,627.587646 595.697021,629.477600 585.558044,630.982483 
	C578.288879,632.061523 571.080811,633.552063 563.423462,634.975464 
	C563.423462,634.975464 563.013123,635.128113 562.249451,634.986328 
	C561.116760,635.302490 559.984009,635.618652 557.995361,635.976257 
M1041.679321,661.223999 
	C1035.981201,660.735046 1030.253052,660.467407 1024.592163,659.703003 
	C1016.929810,658.668396 1009.314026,657.281860 1001.688049,655.988586 
	C997.572021,655.290527 993.404968,654.735901 989.388123,653.647339 
	C983.155640,651.958435 977.113892,649.523254 970.842041,648.032349 
	C962.094055,645.952820 953.236572,644.290344 944.374207,642.746521 
	C934.190247,640.972473 923.997864,638.894226 913.720398,638.107849 
	C903.306885,637.311096 892.784729,637.898560 882.310852,637.974915 
	C881.140076,637.983398 879.973755,638.612427 877.903687,638.974060 
	C872.237610,639.304810 866.536133,639.349670 860.915405,640.046326 
	C855.237366,640.750061 849.639465,642.099915 843.489685,643.041138 
	C843.317383,643.082764 843.145142,643.124390 842.223328,643.024170 
	C841.102905,643.331299 839.982544,643.638489 838.139221,643.982910 
	C837.419922,644.038757 836.700684,644.094543 835.161621,644.006287 
	C832.072449,644.614868 828.983337,645.223389 825.258972,645.966248 
	C824.831665,646.026367 824.404297,646.086548 823.273010,646.001709 
	C822.467285,646.315308 821.661560,646.628906 820.039001,646.978271 
	C817.683411,647.368164 815.327881,647.758057 812.177002,648.000000 
	C810.724426,648.304382 809.271851,648.608765 806.984985,648.958923 
	C805.239014,649.294373 803.497253,649.653870 801.746399,649.961365 
	C791.072815,651.835938 780.391846,653.668701 769.723755,655.573608 
	C757.957947,657.674500 746.227051,659.981262 734.436523,661.929626 
	C724.830383,663.517029 715.164673,664.751831 705.514526,666.063354 
	C695.498535,667.424500 685.482849,668.806274 675.441284,669.954041 
	C669.246582,670.662170 663.003662,670.949707 656.782410,671.426086 
	C661.832520,672.756165 666.930298,673.499939 672.051331,674.009949 
	C686.046265,675.403503 700.028015,677.410889 714.057312,677.863708 
	C734.516907,678.524170 755.004272,678.211731 775.351624,675.039307 
	C784.997803,673.535461 794.845764,673.278381 804.459839,671.627136 
	C818.987793,669.131897 833.406555,665.985229 847.842346,662.974426 
	C858.266052,660.800354 868.642029,658.397400 879.917419,656.011719 
	C889.277283,654.953918 898.637085,653.896118 908.927795,652.976257 
	C917.280029,652.927307 925.632202,652.878357 934.832397,652.984741 
	C940.880249,653.603943 946.928101,654.223206 953.843689,655.005371 
	C968.515320,657.822021 983.165649,660.756897 997.866394,663.412476 
	C1007.201660,665.098816 1016.612000,666.369934 1026.834229,667.977966 
	C1032.507812,668.643250 1038.177490,669.820007 1043.855713,669.861389 
	C1053.941772,669.934937 1064.046021,669.533752 1074.117188,668.915588 
	C1080.438477,668.527649 1086.812744,667.833008 1092.985840,666.471375 
	C1102.688599,664.331238 1112.345825,661.842285 1121.818237,658.854126 
	C1127.265381,657.135620 1132.310791,654.143127 1137.537109,651.724121 
	C1137.409546,651.270264 1137.282104,650.816345 1137.154663,650.362427 
	C1105.920776,658.125793 1074.424316,663.585205 1041.679321,661.223999 
M879.937805,678.982239 
	C891.692993,678.644226 903.450012,678.357239 915.202332,677.939575 
	C919.135498,677.799805 923.071472,677.449585 926.980591,676.981628 
	C937.621643,675.707886 948.221130,674.006287 958.889038,673.058960 
	C971.366821,671.950928 983.899475,671.460999 997.098450,670.661072 
	C971.474060,663.344971 946.102051,659.328430 919.133423,661.033752 
	C891.601990,661.467896 865.770874,672.148560 838.490479,674.470947 
	C851.579407,680.029236 865.330688,679.115051 879.937805,678.982239 
M672.049622,425.157288 
	C673.026245,416.728516 674.252686,408.317596 674.858459,399.862274 
	C675.105835,396.409302 672.689209,394.079926 668.985046,393.970398 
	C664.345886,393.833191 659.639465,393.448669 655.077087,394.047333 
	C651.466492,394.521149 646.610840,394.816650 645.997681,399.713257 
	C644.738770,409.766846 644.082825,419.895905 643.046570,430.741058 
	C643.089355,431.495819 643.132202,432.250549 643.032898,433.633240 
	C642.747375,434.420227 642.461853,435.207214 642.049072,436.748657 
	C642.073425,437.512604 642.097778,438.276581 641.971252,439.889740 
	C641.923340,441.896027 641.875427,443.902344 641.140015,446.406372 
	C640.967529,449.202087 640.890869,452.007660 640.604492,454.791656 
	C639.751404,463.085602 638.814209,471.370911 637.913147,479.659943 
	C636.995544,488.101685 636.081726,496.543854 634.997864,505.873199 
	C634.299072,512.727539 633.320251,519.567505 632.966431,526.439636 
	C632.421143,537.031433 632.279053,547.644714 632.016479,558.250061 
	C631.889893,563.361389 633.938171,567.852417 638.012573,570.550903 
	C649.687439,578.283264 671.244507,576.518494 676.138977,559.778015 
	C676.502502,558.534485 676.278992,557.119263 676.328430,555.783875 
	C675.181396,555.803040 673.997986,555.644165 672.892944,555.869446 
	C663.239990,557.836914 659.926880,555.172119 660.077271,545.157104 
	C660.146606,540.536621 660.557251,535.914795 660.968933,531.307495 
	C661.584229,524.423523 662.397034,517.557190 663.015442,510.673492 
	C663.693054,503.131012 664.245300,495.577271 664.951233,487.172058 
	C665.327148,484.770966 665.810364,482.380920 666.059082,479.966705 
	C666.817627,472.605377 667.475830,465.233734 668.191589,457.867920 
	C669.062256,448.907532 669.951843,439.948944 671.070984,430.467621 
	C671.322937,429.980377 671.574829,429.493134 671.954285,428.261261 
	C671.935974,427.507294 671.917664,426.753296 672.049622,425.157288 
M394.120697,462.495758 
	C394.120697,462.495758 394.229034,462.961731 394.096069,463.628510 
	C394.054657,464.079803 394.013214,464.531097 393.292908,465.498383 
	C393.200531,468.976654 393.324158,472.477783 392.958649,475.927124 
	C392.543243,479.846893 392.936981,484.392944 386.535461,484.151611 
	C383.230347,484.026978 379.799835,485.003265 376.564819,485.954376 
	C374.011047,486.705170 370.316071,487.578094 369.490143,489.442963 
	C367.118378,494.798218 367.395874,500.637482 370.480316,505.885559 
	C371.100494,506.940857 372.902710,508.001740 374.064423,507.905640 
	C377.406403,507.629089 380.685181,506.413879 384.018097,506.276215 
	C385.634918,506.209381 388.697418,503.901855 389.034729,508.908936 
	C388.348053,519.796265 387.698730,530.686218 386.956879,541.569763 
	C386.644379,546.154785 386.148499,550.727661 385.714386,555.303955 
	C385.172455,561.016785 384.453094,566.720215 384.185486,572.445251 
	C384.132355,573.582275 385.818329,575.848633 386.627716,575.814697 
	C394.128784,575.500000 401.611877,574.774109 409.103546,574.212158 
	C413.018036,573.918457 414.352478,571.170044 414.812653,567.941284 
	C415.415588,563.710876 415.615417,559.424438 416.052429,555.168640 
	C416.892120,546.991821 417.847687,538.826294 418.623108,530.643616 
	C419.431488,522.113037 420.084106,513.567627 420.909576,504.360443 
	C420.954071,503.911835 420.998535,503.463226 421.584808,502.761047 
	C421.779419,502.211060 421.974060,501.661072 423.057281,501.016418 
	C427.645508,500.701874 432.250641,500.540985 436.818176,500.038452 
	C444.601135,499.182129 452.348694,498.001465 460.133698,497.167877 
	C465.579895,496.584717 471.063629,496.352844 476.956757,495.933746 
	C476.956757,501.428619 476.956757,506.204346 476.292999,511.513153 
	C475.705353,533.034973 471.957672,554.435242 472.866730,576.521912 
	C480.570740,576.001709 487.311768,575.632385 494.036224,575.066589 
	C499.987427,574.565857 502.557617,571.837402 503.087067,565.771912 
	C504.041290,554.840759 504.968842,543.907288 506.033752,532.331177 
	C505.991638,531.897217 505.949554,531.463257 506.006012,530.347107 
	C505.955536,529.892273 505.905060,529.437378 505.953552,528.116760 
	C506.314789,523.906067 506.642792,519.692139 507.046814,515.485535 
	C507.437286,511.420197 507.976715,507.368439 508.326569,503.300049 
	C509.195190,493.199005 509.992950,483.091919 511.216003,472.257935 
	C512.141052,463.289185 513.003052,454.313354 514.007568,445.353516 
	C515.160339,435.072235 516.583618,424.819550 517.615417,414.527008 
	C518.359924,407.100250 518.656677,399.628601 519.160889,392.060913 
	C509.448761,392.057281 500.385406,390.668427 492.461884,395.904144 
	C490.507050,397.195862 488.766724,399.545746 488.035583,401.772888 
	C487.088837,404.656708 487.300293,407.910828 486.928925,410.995422 
	C485.916626,419.404114 484.761688,427.796783 483.847504,436.215820 
	C482.845123,445.447021 482.048584,454.700531 481.039581,464.805664 
	C480.690521,467.237976 480.699982,469.805847 479.851959,472.049561 
	C479.377014,473.306244 477.557404,474.717987 476.212311,474.866058 
	C470.814606,475.460266 465.351807,475.438141 459.939636,475.933655 
	C455.259796,476.362152 450.629181,477.309540 445.952972,477.800568 
	C438.833374,478.548157 431.693207,479.099731 424.078674,479.777557 
	C424.078674,476.304199 423.913239,473.162537 424.110596,470.043854 
	C424.639709,461.683197 425.324158,453.332367 426.039459,444.085815 
	C426.656097,436.717438 427.408295,429.357300 427.855011,421.978638 
	C428.410736,412.800079 428.714142,403.606262 429.162811,393.610352 
	C421.410339,394.063110 414.357513,394.241974 407.360077,394.960358 
	C402.144928,395.495758 398.364471,399.614319 398.025208,404.422211 
	C397.595398,410.514160 397.311523,416.616333 396.950348,422.713257 
	C396.609039,428.475555 396.293854,434.239960 395.886230,439.997681 
	C395.366211,447.342712 394.764893,454.682007 394.120697,462.495758 
M720.035889,501.138397 
	C721.208923,491.720062 722.517883,482.314972 723.438965,472.872009 
	C723.620850,471.007324 722.667480,467.538055 721.630615,467.283722 
	C713.028503,465.173706 704.500732,465.949921 696.427368,469.770477 
	C695.339905,470.285034 694.184631,471.742981 694.012085,472.905273 
	C693.435242,476.791504 693.412720,480.756226 692.953369,484.664520 
	C692.116821,491.781219 691.119263,498.878967 690.043579,506.884583 
	C689.340210,513.403320 688.351685,519.906616 687.998840,526.444275 
	C687.437378,536.848206 687.406250,547.279602 686.948120,557.690491 
	C686.593262,565.752380 692.268066,572.062988 698.359741,573.724243 
	C711.151794,577.212891 725.083191,573.079529 731.239197,559.538086 
	C731.867188,558.156677 732.036316,556.566650 732.418335,555.073425 
	C730.770508,554.969971 729.056091,554.521545 727.486694,554.824463 
	C721.676575,555.945496 716.568970,553.572571 716.227722,548.734497 
	C715.856262,543.468567 716.074463,538.114563 716.548584,532.845154 
	C717.475037,522.548645 718.758362,512.284302 720.035889,501.138397 
M725.890015,653.008789 
	C727.975769,652.670654 730.081787,652.426147 732.144104,651.979675 
	C750.374146,648.033203 768.569092,643.919617 786.829773,640.121582 
	C800.819824,637.211670 814.883118,634.649963 828.927979,632.008728 
	C834.614929,630.939209 840.339478,630.069946 846.945862,629.021606 
	C858.898865,628.015381 870.860962,626.100098 882.802795,626.218872 
	C900.094849,626.390869 917.574341,626.736511 934.603516,629.387451 
	C954.700500,632.515991 974.333923,638.514343 994.298950,642.635254 
	C1008.752380,645.618530 1023.347900,648.268372 1038.013062,649.755737 
	C1049.259399,650.896240 1060.723022,649.696655 1072.072266,650.072571 
	C1084.475708,650.483398 1096.525513,648.353394 1108.567139,646.000671 
	C1136.809082,640.482788 1162.267334,628.436768 1186.036987,612.546326 
	C1188.113037,611.158447 1189.864990,609.285767 1191.767456,607.638306 
	C1156.407471,622.211792 1120.156616,631.643127 1081.082153,632.986572 
	C1069.721802,633.035156 1058.361572,633.083740 1046.078491,632.995361 
	C1038.500732,632.652649 1030.850952,632.846863 1023.362000,631.842102 
	C1011.982422,630.315369 1000.696594,628.052124 989.403809,625.926941 
	C975.928772,623.391174 962.459595,620.807556 949.045593,617.971436 
	C942.664795,616.622375 936.499268,614.176208 930.091492,613.052124 
	C920.176575,611.312988 910.145264,610.219238 900.149048,608.965332 
	C888.830811,607.545532 877.496826,606.250854 865.738464,604.119751 
	C855.441956,604.060364 845.145447,603.982056 834.848938,603.985107 
	C834.179077,603.985352 833.509338,604.609802 831.925842,604.993591 
	C820.452576,605.650146 808.909180,605.728455 797.523804,607.109436 
	C783.256104,608.840088 769.073547,611.402466 754.939270,614.058350 
	C744.871948,615.950073 734.944946,618.588379 724.128235,620.968262 
	C702.694092,626.609131 681.260010,632.250061 659.028687,637.949768 
	C626.442871,646.887939 593.962708,656.269470 560.415894,661.908997 
	C568.953308,663.538757 577.548279,665.694885 586.167908,665.798218 
	C606.586975,666.043152 627.018555,665.358459 647.442871,664.940063 
	C651.545898,664.856018 655.660583,664.449646 659.732605,663.910767 
	C671.522400,662.350708 683.328369,660.861328 695.060852,658.935242 
	C705.102966,657.286621 715.052429,655.073303 725.890015,653.008789 
M858.036621,432.175873 
	C858.521545,428.790619 859.039368,425.409668 859.484314,422.019135 
	C860.336609,415.525360 861.378906,409.041931 861.824585,402.518860 
	C861.947388,400.721436 860.171326,397.156281 859.380249,397.188568 
	C851.715149,397.501526 844.052307,398.250122 836.447815,399.300781 
	C835.173157,399.476837 833.559143,401.538727 833.186523,403.004852 
	C832.391357,406.133118 832.319519,409.443573 831.929871,412.676819 
	C830.991638,420.461670 830.041016,428.245056 828.938416,436.862762 
	C828.624023,438.462677 828.179260,440.049500 828.017456,441.664703 
	C827.280151,449.026428 826.629089,456.396729 825.932495,463.762573 
	C825.670105,466.537506 824.909607,467.863708 821.336731,467.780548 
	C811.206116,467.544739 800.625244,466.326599 791.002380,468.683197 
	C768.404663,474.217285 753.936584,489.943268 744.111755,511.268250 
	C742.631104,517.745544 740.899841,524.177795 739.726013,530.710266 
	C737.745483,541.731689 739.335571,552.459351 745.335571,561.869141 
	C754.095947,575.608215 770.281677,577.901917 785.112671,571.984253 
	C796.185913,567.565979 804.835754,559.733948 811.320618,549.619873 
	C812.845947,547.241089 814.636536,545.032410 816.899963,541.929993 
	C817.203979,551.174194 816.706726,559.412781 821.127319,566.836670 
	C826.268188,575.470337 834.666687,575.693359 842.879761,574.732361 
	C853.816528,573.452454 863.215820,562.930603 861.237671,554.848755 
	C859.706726,555.133789 858.128906,555.369385 856.578979,555.726562 
	C851.005859,557.010864 846.922729,554.656982 846.204529,548.982300 
	C845.688171,544.902161 845.984863,540.678589 846.277893,536.544434 
	C847.047302,525.688721 848.013123,514.846863 849.077209,503.192017 
	C849.718628,498.997070 850.466309,494.815125 850.980530,490.604645 
	C852.234192,480.339264 853.358643,470.058136 854.574890,459.788055 
	C855.633057,450.852234 856.745667,441.922821 858.036621,432.175873 
M521.233215,516.505493 
	C520.970703,528.640320 520.043701,540.713562 525.438599,552.349365 
	C529.888123,561.946167 536.727844,568.847351 546.444641,571.951538 
	C567.595459,578.708252 587.344482,576.225220 603.831665,560.050293 
	C614.981812,549.111450 620.859314,535.579468 622.036926,519.188904 
	C622.032959,515.657715 621.725708,512.095642 622.080750,508.600922 
	C623.248352,497.108063 619.458313,487.018280 612.717468,478.215607 
	C600.793701,462.644653 583.787415,462.034027 566.596497,464.804291 
	C550.779602,467.353180 538.693604,476.165466 530.908813,490.467896 
	C526.539368,498.495514 522.261414,506.532471 521.233215,516.505493 
M442.268280,631.879944 
	C455.562836,631.944031 468.857361,632.022400 482.151947,632.030212 
	C482.817627,632.030579 483.483643,631.420105 485.061249,631.000427 
	C491.133911,630.664673 497.215607,630.444580 503.277283,629.968628 
	C515.020020,629.046509 526.768799,628.147766 538.483093,626.931213 
	C552.749512,625.449768 566.983398,623.655090 581.230347,621.986755 
	C586.504150,621.369202 591.774902,620.725830 597.974121,620.005432 
	C633.928162,620.005432 669.882202,620.005432 705.836243,620.005432 
	C705.980530,619.583801 706.124878,619.162170 706.269165,618.740540 
	C705.042419,618.144775 703.874695,617.281372 702.579590,616.995422 
	C691.733948,614.600586 680.915771,612.026611 669.987671,610.076294 
	C660.237366,608.336060 650.372192,607.198792 640.530334,606.025391 
	C633.219666,605.153748 625.860779,604.694458 618.531189,603.972351 
	C605.209839,602.659790 591.914185,600.460571 578.571716,600.141663 
	C560.028687,599.698486 541.448059,600.499756 522.891846,601.047913 
	C509.201599,601.452209 495.523895,602.290344 481.843628,602.993347 
	C481.158508,603.028564 480.501831,603.617126 478.931458,603.996521 
	C471.758179,604.656250 464.588623,605.359436 457.410889,605.966797 
	C441.217010,607.337158 425.035706,608.934631 408.817535,609.914551 
	C396.081421,610.684143 383.298584,610.868164 370.534882,610.920776 
	C363.265320,610.950684 355.992462,610.195190 348.721069,609.793396 
	C348.653046,610.298462 348.585022,610.803528 348.516968,611.308594 
	C378.463531,623.182922 409.374817,630.685181 442.268280,631.879944 
M726.004333,421.415680 
	C721.171570,416.868927 715.209839,419.231415 709.820435,419.160522 
	C703.523132,419.077667 697.178345,425.988556 696.891907,431.741760 
	C696.371277,442.197571 698.538757,445.076630 708.060303,446.753815 
	C710.865967,447.247986 713.958740,446.532257 716.855774,446.013031 
	C727.720459,444.065552 732.996582,430.911438 726.004333,421.415680 
z"/>
<path fill="#34C0DC" opacity="1.000000" stroke="none" 
	d="
M866.169678,604.901855 
	C877.496826,606.250854 888.830811,607.545532 900.149048,608.965332 
	C910.145264,610.219238 920.176575,611.312988 930.091492,613.052124 
	C936.499268,614.176208 942.664795,616.622375 949.045593,617.971436 
	C962.459595,620.807556 975.928772,623.391174 989.403809,625.926941 
	C1000.696594,628.052124 1011.982422,630.315369 1023.362000,631.842102 
	C1030.850952,632.846863 1038.500732,632.652649 1046.890747,633.281738 
	C1055.747070,633.730408 1063.791260,634.001770 1071.835327,634.003235 
	C1075.228027,634.003845 1078.620850,633.435425 1082.013550,633.125732 
	C1120.156616,631.643127 1156.407471,622.211792 1191.767456,607.638306 
	C1189.864990,609.285767 1188.113037,611.158447 1186.036987,612.546326 
	C1162.267334,628.436768 1136.809082,640.482788 1108.567139,646.000671 
	C1096.525513,648.353394 1084.475708,650.483398 1072.072266,650.072571 
	C1060.723022,649.696655 1049.259399,650.896240 1038.013062,649.755737 
	C1023.347900,648.268372 1008.752380,645.618530 994.298950,642.635254 
	C974.333923,638.514343 954.700500,632.515991 934.603516,629.387451 
	C917.574341,626.736511 900.094849,626.390869 882.802795,626.218872 
	C870.860962,626.100098 858.898865,628.015381 846.307312,628.763428 
	C840.060364,623.903198 836.978760,624.196899 830.417603,627.870056 
	C827.562378,629.468384 822.119751,630.779785 820.402466,629.287354 
	C814.555115,624.205383 807.024841,625.529480 801.012634,622.667480 
	C791.734985,618.250977 782.273926,617.733215 772.480530,617.810364 
	C771.833984,617.815430 771.192383,617.476807 770.536255,617.391846 
	C764.511536,616.611328 758.645142,616.525879 753.216248,620.064270 
	C751.616882,621.106567 749.482239,621.881165 747.607910,621.850891 
	C740.053894,621.729004 732.505676,621.244202 724.955322,620.893433 
	C734.944946,618.588379 744.871948,615.950073 754.939270,614.058350 
	C769.073547,611.402466 783.256104,608.840088 797.523804,607.109436 
	C808.909180,605.728455 820.452576,605.650146 832.860779,605.000977 
	C844.587036,604.972900 855.378357,604.937378 866.169678,604.901855 
z"/>
<path fill="#6CB41D" opacity="1.000000" stroke="none" 
	d="
M1041.206787,318.477142 
	C1036.854736,315.568756 1032.502563,312.660400 1028.345459,309.252167 
	C1036.320190,306.495331 1044.099976,304.238342 1051.879883,301.981354 
	C1055.230713,307.632324 1058.581543,313.283264 1061.655396,318.467010 
	C1062.446899,314.482086 1063.359497,309.888367 1064.900391,305.342896 
	C1069.837036,305.925446 1074.146362,306.451935 1078.453247,306.996643 
	C1081.296509,307.356293 1084.599609,306.987579 1085.146484,311.100983 
	C1085.146484,311.100983 1085.043823,311.096191 1084.864014,311.191589 
	C1084.387329,311.470215 1084.188477,311.728821 1084.087524,312.062714 
	C1084.087524,312.062714 1084.044800,312.040039 1083.845337,312.174469 
	C1083.389038,312.500122 1083.203125,312.745209 1083.088257,313.044159 
	C1083.088257,313.044159 1083.066284,313.062286 1082.875488,313.201172 
	C1082.458496,313.550598 1082.337769,313.810150 1082.322632,314.118744 
	C1080.845215,315.744202 1079.367676,317.369690 1077.890259,318.995178 
	C1078.106812,319.285553 1078.323364,319.575928 1078.539917,319.866302 
	C1080.076294,318.883698 1081.612671,317.901123 1083.845825,316.996246 
	C1091.035522,322.007782 1097.528320,326.941589 1104.021240,331.875427 
	C1096.320435,332.149506 1088.619751,332.423584 1080.918945,332.697632 
	C1105.902954,333.999359 1129.127319,338.511688 1143.078857,362.293274 
	C1151.749023,377.072144 1154.580322,392.911591 1148.626099,410.190399 
	C1143.149658,401.231415 1137.953735,392.731567 1132.494873,383.801453 
	C1131.584839,385.430908 1130.914551,386.631226 1130.097412,388.094574 
	C1126.079102,380.498413 1122.133789,373.040222 1117.814575,364.875275 
	C1116.807861,370.795135 1115.966553,375.742371 1114.897949,382.026825 
	C1107.572998,372.964905 1101.129883,364.994080 1094.309082,356.555878 
	C1094.074097,358.207977 1093.897705,359.447571 1093.715332,360.729340 
	C1086.701538,356.149475 1079.781006,351.630554 1072.365234,346.809082 
	C1069.861938,344.975830 1067.853882,343.445099 1064.655518,341.007111 
	C1064.324707,346.242859 1064.076416,350.171783 1063.828125,354.100708 
	C1060.545044,359.106628 1057.291504,364.132416 1053.959595,369.105591 
	C1053.056030,370.454224 1051.915405,371.644012 1050.197021,373.746979 
	C1048.621460,369.899170 1047.336426,366.760529 1046.119385,363.787994 
	C1042.639648,373.150085 1039.150269,382.538452 1035.163452,393.264832 
	C1032.822021,389.752747 1031.316162,387.493958 1029.844482,385.286530 
	C1025.320435,392.982452 1020.939819,400.434387 1016.316223,408.299652 
	C1009.346985,395.590027 1008.337952,378.154388 1016.958801,363.776276 
	C1025.159058,350.099457 1037.421143,341.906067 1053.072144,338.518188 
	C1037.388672,337.957184 1022.833679,342.058563 1008.880371,348.922272 
	C1008.580139,348.548645 1008.279907,348.175018 1007.979675,347.801392 
	C1009.250244,345.715729 1010.520813,343.630066 1012.145630,341.012970 
	C1013.258423,339.294434 1014.874146,337.887268 1014.635132,336.956238 
	C1013.181885,331.295258 1017.531372,329.275177 1020.552734,326.133087 
	C1023.401001,323.171051 1025.533691,319.520935 1027.981201,316.173462 
	C1032.053711,317.081299 1036.126343,317.989136 1040.744141,319.226929 
	C1042.222168,319.948914 1043.155151,320.340881 1044.088013,320.732849 
	C1044.207275,320.475616 1044.326538,320.218384 1044.445801,319.961151 
	C1043.366089,319.466492 1042.286499,318.971832 1041.206787,318.477142 
z"/>
<path fill="#FE9102" opacity="1.000000" stroke="none" 
	d="
M911.044556,539.087708 
	C908.063171,546.536743 905.087219,553.987976 902.091614,561.431335 
	C901.795532,562.166809 901.163086,562.821655 901.051575,563.568420 
	C899.910095,571.210693 894.402344,574.245972 887.784790,574.777466 
	C879.705933,575.426392 871.535217,574.931946 861.873413,574.931946 
	C870.762939,554.617065 879.286682,535.138000 888.160706,515.113342 
	C888.650574,514.027039 888.790161,513.486267 888.929749,512.945557 
	C888.929749,512.945557 888.978394,512.964539 889.360107,512.974731 
	C896.958374,516.222595 904.403931,516.473694 912.073486,514.961975 
	C915.012634,514.382629 918.065979,514.382874 921.046265,514.542603 
	C921.326721,515.608521 921.646973,516.816711 921.926880,516.807434 
	C925.559448,516.687256 929.186340,516.394104 933.126587,516.453125 
	C939.909241,516.875061 946.381775,517.125793 952.849915,517.041443 
	C955.906799,517.001709 958.955261,516.320068 962.000305,515.962463 
	C961.993042,515.995667 961.928528,515.974365 962.249634,515.921875 
	C962.711853,515.257751 962.853027,514.645996 963.260254,513.799988 
	C968.790039,512.376648 974.015076,510.473083 979.327759,510.184875 
	C985.533752,509.848145 991.537537,509.701843 996.833618,505.993805 
	C998.266724,512.432983 999.568542,518.904846 1001.161011,525.304382 
	C1004.223450,537.611450 1007.450378,549.877502 1010.347656,562.670715 
	C998.421875,565.353882 986.757690,567.526917 975.093384,569.699890 
	C973.064575,561.741516 971.026428,553.785461 969.014954,545.822693 
	C968.623169,544.271973 968.335266,542.695007 968.047485,540.289185 
	C966.489502,538.920349 964.886230,537.944336 963.276855,537.934143 
	C947.394165,537.833191 931.510254,537.860535 915.627319,537.957886 
	C914.097534,537.967346 912.572021,538.693970 911.044556,539.087708 
M919.492737,516.544678 
	C919.492737,516.544678 919.461975,516.479187 919.492737,516.544678 
z"/>
<path fill="#0F7C7D" opacity="1.000000" stroke="none" 
	d="
M848.900635,503.999512 
	C848.013123,514.846863 847.047302,525.688721 846.277893,536.544434 
	C845.984863,540.678589 845.688171,544.902161 846.204529,548.982300 
	C846.922729,554.656982 851.005859,557.010864 856.578979,555.726562 
	C858.128906,555.369385 859.706726,555.133789 861.237671,554.848755 
	C863.215820,562.930603 853.816528,573.452454 842.879761,574.732361 
	C834.666687,575.693359 826.268188,575.470337 821.127319,566.836670 
	C816.706726,559.412781 817.203979,551.174194 816.899963,541.929993 
	C814.636536,545.032410 812.845947,547.241089 811.320618,549.619873 
	C804.835754,559.733948 796.185913,567.565979 785.112671,571.984253 
	C770.281677,577.901917 754.095947,575.608215 745.335571,561.869141 
	C739.335571,552.459351 737.745483,541.731689 739.726013,530.710266 
	C740.899841,524.177795 742.631104,517.745544 744.800964,511.080139 
	C747.147827,509.939575 748.903992,509.122864 750.443176,508.006897 
	C753.879028,505.515839 757.025818,502.581940 760.621765,500.366241 
	C765.732178,497.217407 776.580688,499.724670 778.992188,504.586365 
	C772.229858,517.557556 767.042175,530.476257 770.015137,545.294434 
	C771.676392,553.574402 779.142578,557.565613 786.958618,554.394226 
	C798.905151,549.546997 805.360107,539.548279 810.746948,528.897217 
	C815.119751,520.251221 818.251587,510.977661 822.210327,502.203796 
	C825.123047,502.629791 827.861511,502.449646 830.374023,503.118591 
	C835.707764,504.538666 840.923889,506.400787 846.018188,508.027374 
	C846.938232,506.741760 847.919373,505.370636 848.900635,503.999512 
z"/>
<path fill="#128986" opacity="1.000000" stroke="none" 
	d="
M421.042969,503.014618 
	C420.998535,503.463226 420.954071,503.911835 420.593445,504.893127 
	C419.257599,506.189209 418.194244,507.664825 417.225006,507.605408 
	C408.048462,507.042725 400.026031,510.633850 392.063416,514.338440 
	C391.058075,512.135193 390.111450,510.060638 389.164825,507.986084 
	C388.697418,503.901855 385.634918,506.209381 384.018097,506.276215 
	C380.685181,506.413879 377.406403,507.629089 374.064423,507.905640 
	C372.902710,508.001740 371.100494,506.940857 370.480316,505.885559 
	C367.395874,500.637482 367.118378,494.798218 369.490143,489.442963 
	C370.316071,487.578094 374.011047,486.705170 376.564819,485.954376 
	C379.799835,485.003265 383.230347,484.026978 386.535461,484.151611 
	C392.936981,484.392944 392.543243,479.846893 392.958649,475.927124 
	C393.324158,472.477783 393.200531,468.976654 393.857849,465.509644 
	C395.806671,466.890869 397.190552,468.260864 398.574432,469.630859 
	C399.395935,468.144745 400.424683,466.734131 400.999115,465.157990 
	C402.580383,460.819580 403.830414,456.358185 405.471283,452.044281 
	C407.796906,445.930267 413.810791,441.770142 420.313385,442.138580 
	C422.238647,442.247620 424.071594,443.985931 425.946869,444.977661 
	C425.324158,453.332367 424.639709,461.683197 424.110596,470.043854 
	C423.913239,473.162537 424.078674,476.304199 424.078674,479.777557 
	C431.693207,479.099731 438.833374,478.548157 445.952972,477.800568 
	C450.629181,477.309540 455.259796,476.362152 459.939636,475.933655 
	C465.351807,475.438141 470.814606,475.460266 476.212311,474.866058 
	C477.557404,474.717987 479.377014,473.306244 479.851959,472.049561 
	C480.699982,469.805847 480.690521,467.237976 481.283081,464.148254 
	C481.955170,462.861420 482.383728,462.231995 482.929871,461.429962 
	C484.058014,463.006958 484.963684,464.272949 486.102234,465.864502 
	C488.853912,462.424408 491.346558,459.308167 494.328613,455.580048 
	C497.376770,460.884369 501.727203,461.144104 506.390564,461.076660 
	C510.517242,461.016998 512.070679,463.141937 509.882111,465.557007 
	C507.012299,468.723785 508.645447,470.755005 510.819153,472.987244 
	C509.992950,483.091919 509.195190,493.199005 508.326569,503.300049 
	C507.976715,507.368439 507.437286,511.420197 507.046814,515.485535 
	C506.642792,519.692139 506.314789,523.906067 505.571869,528.405396 
	C504.645142,523.070496 504.133057,517.443542 503.533112,511.825958 
	C503.373383,510.330231 502.944489,508.863281 502.639191,507.383118 
	C501.161591,507.899109 499.099487,507.971893 498.311615,509.010895 
	C495.495819,512.724548 492.150665,512.390442 488.509918,510.980133 
	C485.439270,509.790680 482.386719,507.777618 479.767761,511.833618 
	C479.621704,512.059814 477.929382,511.287598 476.956757,510.980103 
	C476.956757,506.204346 476.956757,501.428619 476.956757,495.933746 
	C471.063629,496.352844 465.579895,496.584717 460.133698,497.167877 
	C452.348694,498.001465 444.601135,499.182129 436.818176,500.038452 
	C432.250641,500.540985 427.645508,500.701874 422.348633,501.103271 
	C421.440979,501.798248 421.241974,502.406433 421.042969,503.014618 
z"/>
<path fill="#FEBA04" opacity="1.000000" stroke="none" 
	d="
M906.871216,471.968262 
	C914.250488,454.879700 921.630005,437.791290 929.008545,420.702362 
	C930.988098,416.117493 932.851440,411.476807 935.015686,406.980896 
	C935.603516,405.759827 937.074890,404.144043 938.174377,404.117798 
	C947.807617,403.887817 957.449158,403.908051 967.086609,404.012848 
	C970.079651,404.045380 971.376221,405.970612 972.098389,408.883392 
	C975.858948,424.050690 979.861816,439.157684 983.715820,454.302094 
	C985.224060,460.228577 986.563843,466.197906 987.645752,472.302521 
	C984.830139,472.067932 982.269775,471.099426 979.886719,471.425537 
	C976.352722,471.909149 973.000183,473.629150 969.469543,474.246490 
	C964.087585,475.187469 958.918274,478.524872 953.080078,475.614807 
	C951.020813,467.884827 949.040039,460.548676 946.792908,452.225708 
	C944.898560,456.644318 943.473816,460.023346 942.004150,463.382690 
	C939.695435,468.659943 937.356384,473.923950 934.686401,479.006439 
	C932.913879,478.704559 931.437866,478.300049 930.064209,478.523682 
	C922.899597,479.689911 916.358398,478.904053 910.865723,473.523590 
	C909.927124,472.604095 908.222168,472.466888 906.871216,471.968262 
z"/>
<path fill="#34C0DC" opacity="1.000000" stroke="none" 
	d="
M597.047058,620.094238 
	C591.774902,620.725830 586.504150,621.369202 581.230347,621.986755 
	C566.983398,623.655090 552.749512,625.449768 538.483093,626.931213 
	C526.768799,628.147766 515.020020,629.046509 503.277283,629.968628 
	C497.215607,630.444580 491.133911,630.664673 484.130035,630.999634 
	C469.416412,631.030090 455.633972,631.061401 441.851562,631.092773 
	C409.374817,630.685181 378.463531,623.182922 348.516968,611.308594 
	C348.585022,610.803528 348.653046,610.298462 348.721069,609.793396 
	C355.992462,610.195190 363.265320,610.950684 370.534882,610.920776 
	C383.298584,610.868164 396.081421,610.684143 408.817535,609.914551 
	C425.035706,608.934631 441.217010,607.337158 457.410889,605.966797 
	C464.588623,605.359436 471.758179,604.656250 479.829712,603.998535 
	C484.843567,605.012573 488.990082,605.916138 493.063477,607.076416 
	C495.605377,607.800476 497.968994,609.422913 500.529449,609.763428 
	C513.426270,611.478394 525.991638,614.550537 539.435486,613.437866 
	C551.053772,612.476379 563.005432,615.118652 574.770142,616.503845 
	C582.233215,617.382568 589.623901,618.876282 597.047058,620.094238 
z"/>
<path fill="#0F7C7D" opacity="1.000000" stroke="none" 
	d="
M621.864441,519.965637 
	C620.859314,535.579468 614.981812,549.111450 603.831665,560.050293 
	C587.344482,576.225220 567.595459,578.708252 546.444641,571.951538 
	C536.727844,568.847351 529.888123,561.946167 525.438599,552.349365 
	C520.043701,540.713562 520.970703,528.640320 521.894653,516.326416 
	C523.821289,517.286072 525.086548,518.424805 526.902771,520.059387 
	C527.996155,517.458008 529.059204,515.446655 529.691589,513.308044 
	C530.759216,509.697571 532.888123,507.897614 536.531616,506.398529 
	C542.364441,503.998718 548.003906,504.101105 553.912842,505.389862 
	C552.685791,512.057190 551.014282,518.283630 550.294983,524.618225 
	C549.016541,535.876526 550.914734,546.608948 557.736938,556.006348 
	C560.821838,560.255737 568.994019,562.177246 573.573181,560.117676 
	C581.193359,556.690308 585.662170,550.661499 589.118896,543.197449 
	C594.796570,530.937744 595.302551,518.066406 595.465393,505.151245 
	C596.486938,508.329468 597.166077,511.349884 597.819641,514.256653 
	C600.445984,512.063232 602.549561,509.100159 605.298401,508.267395 
	C610.650940,506.645874 615.073425,509.224274 618.123108,514.257751 
	C619.301270,516.202148 620.613342,518.065430 621.864441,519.965637 
z"/>
<path fill="#128986" opacity="1.000000" stroke="none" 
	d="
M779.161133,504.283722 
	C776.580688,499.724670 765.732178,497.217407 760.621765,500.366241 
	C757.025818,502.581940 753.879028,505.515839 750.443176,508.006897 
	C748.903992,509.122864 747.147827,509.939575 745.115967,510.868408 
	C753.936584,489.943268 768.404663,474.217285 791.002380,468.683197 
	C800.625244,466.326599 811.206116,467.544739 821.336731,467.780548 
	C824.909607,467.863708 825.670105,466.537506 825.932495,463.762573 
	C826.629089,456.396729 827.280151,449.026428 828.017456,441.664703 
	C828.179260,440.049500 828.624023,438.462677 829.218811,436.772156 
	C830.024536,439.308624 830.549805,441.935669 831.246887,445.421722 
	C844.164551,429.690338 847.021545,428.878540 857.834167,432.990570 
	C856.745667,441.922821 855.633057,450.852234 854.574890,459.788055 
	C853.358643,470.058136 852.234192,480.339264 850.980530,490.604645 
	C850.466309,494.815125 849.718628,498.997070 848.988892,503.595764 
	C847.919373,505.370636 846.938232,506.741760 846.018188,508.027374 
	C840.923889,506.400787 835.707764,504.538666 830.374023,503.118591 
	C827.861511,502.449646 825.123047,502.629791 822.234497,501.775696 
	C822.574280,497.258453 823.102478,493.379425 823.780273,489.526764 
	C824.257874,486.811951 824.004639,484.230896 820.931335,483.711823 
	C816.664795,482.991272 812.153137,482.042267 807.988708,482.707458 
	C794.770264,484.818726 786.409119,493.920868 779.161133,504.283722 
z"/>
<path fill="#2EABD6" opacity="1.000000" stroke="none" 
	d="
M812.972290,648.147949 
	C815.327881,647.758057 817.683411,647.368164 820.780273,646.969788 
	C822.340088,646.689758 823.158508,646.418213 823.976990,646.146729 
	C824.404297,646.086548 824.831665,646.026367 825.883179,646.150452 
	C830.072510,647.372498 833.524170,647.918152 835.981384,644.150330 
	C836.700684,644.094543 837.419922,644.038757 838.860596,643.979980 
	C840.712280,643.706665 841.842529,643.436340 842.972839,643.166016 
	C843.145142,643.124390 843.317383,643.082764 843.826538,643.439575 
	C847.399170,645.528381 850.478088,647.702087 853.901855,648.813232 
	C862.195496,651.504517 870.649780,653.700806 879.039307,656.096558 
	C868.642029,658.397400 858.266052,660.800354 847.842346,662.974426 
	C833.406555,665.985229 818.987793,669.131897 804.459839,671.627136 
	C794.845764,673.278381 784.997803,673.535461 775.351624,675.039307 
	C755.004272,678.211731 734.516907,678.524170 714.057312,677.863708 
	C700.028015,677.410889 686.046265,675.403503 672.051331,674.009949 
	C666.930298,673.499939 661.832520,672.756165 656.782410,671.426086 
	C663.003662,670.949707 669.246582,670.662170 675.441284,669.954041 
	C685.482849,668.806274 695.498535,667.424500 705.514526,666.063354 
	C715.164673,664.751831 724.830383,663.517029 734.436523,661.929626 
	C746.227051,659.981262 757.957947,657.674500 769.723755,655.573608 
	C780.391846,653.668701 791.072815,651.835938 801.746399,649.961365 
	C803.497253,649.653870 805.239014,649.294373 807.787598,648.970825 
	C810.050903,648.704407 811.511597,648.426208 812.972290,648.147949 
z"/>
<path fill="#2FB9D9" opacity="1.000000" stroke="none" 
	d="
M724.541748,620.930847 
	C732.505676,621.244202 740.053894,621.729004 747.607910,621.850891 
	C749.482239,621.881165 751.616882,621.106567 753.216248,620.064270 
	C758.645142,616.525879 764.511536,616.611328 770.536255,617.391846 
	C771.192383,617.476807 771.833984,617.815430 772.480530,617.810364 
	C782.273926,617.733215 791.734985,618.250977 801.012634,622.667480 
	C807.024841,625.529480 814.555115,624.205383 820.402466,629.287354 
	C822.119751,630.779785 827.562378,629.468384 830.417603,627.870056 
	C836.978760,624.196899 840.060364,623.903198 845.857849,628.807373 
	C840.339478,630.069946 834.614929,630.939209 828.927979,632.008728 
	C814.883118,634.649963 800.819824,637.211670 786.829773,640.121582 
	C768.569092,643.919617 750.374146,648.033203 732.144104,651.979675 
	C730.081787,652.426147 727.975769,652.670654 725.229492,652.767334 
	C724.079163,651.677429 723.337463,650.883667 723.139893,649.971985 
	C721.672913,643.202026 720.484741,642.022400 713.699890,642.069458 
	C710.753906,642.089844 707.819580,643.058899 704.867676,643.138306 
	C700.475342,643.256348 695.765259,643.923401 691.743896,642.632385 
	C685.368469,640.585632 679.460083,639.532898 672.782715,641.362366 
	C668.285339,642.594604 663.198792,642.536255 659.825867,637.890991 
	C681.260010,632.250061 702.694092,626.609131 724.541748,620.930847 
z"/>
<path fill="#FCB62F" opacity="1.000000" stroke="none" 
	d="
M954.955627,609.127991 
	C943.557312,606.495422 932.158936,603.862854 920.430054,600.677979 
	C920.679993,599.392395 921.111694,598.272949 921.863037,597.983521 
	C933.620789,593.455505 945.920532,591.658997 958.424072,591.042297 
	C968.153442,590.562378 977.932373,590.650940 987.612427,589.702393 
	C1007.745544,587.729553 1027.845947,585.380432 1047.914673,582.830750 
	C1051.740479,582.344666 1055.358276,580.221130 1059.523682,578.854004 
	C1064.680054,578.641418 1069.384766,578.427979 1074.161377,578.543701 
	C1075.979980,579.945007 1077.656494,581.802856 1079.484375,581.966125 
	C1095.472900,583.394531 1111.494141,584.646301 1127.244263,579.992981 
	C1133.464355,583.114380 1139.684570,586.235840 1145.928833,589.996826 
	C1139.127930,594.149292 1132.458496,598.031555 1125.405640,601.003967 
	C1122.338135,602.296875 1118.482910,601.720581 1114.608765,601.905884 
	C1088.593018,595.063721 1062.465698,593.724548 1036.067383,593.808655 
	C1011.860229,593.885803 988.435181,598.167480 965.224121,604.272766 
	C961.624634,605.219543 958.369812,607.476746 954.955627,609.127991 
z"/>
<path fill="#E8941E" opacity="1.000000" stroke="none" 
	d="
M955.156982,609.468628 
	C958.369812,607.476746 961.624634,605.219543 965.224121,604.272766 
	C988.435181,598.167480 1011.860229,593.885803 1036.067383,593.808655 
	C1062.465698,593.724548 1088.593018,595.063721 1114.538086,602.252319 
	C1113.312622,603.814697 1111.921143,605.595032 1110.225342,605.959595 
	C1102.680908,607.581848 1095.088989,609.103577 1087.441040,610.099792 
	C1070.891846,612.255432 1054.270020,613.869690 1037.746704,616.194519 
	C1034.646118,616.630676 1031.865967,619.342896 1028.937866,621.004883 
	C1012.328674,618.853577 995.694885,616.872559 979.120972,614.477356 
	C971.141846,613.324219 963.275696,611.389893 955.156982,609.468628 
z"/>
<path fill="#40C7DF" opacity="1.000000" stroke="none" 
	d="
M597.510620,620.049805 
	C589.623901,618.876282 582.233215,617.382568 574.770142,616.503845 
	C563.005432,615.118652 551.053772,612.476379 539.435486,613.437866 
	C525.991638,614.550537 513.426270,611.478394 500.529449,609.763428 
	C497.968994,609.422913 495.605377,607.800476 493.063477,607.076416 
	C488.990082,605.916138 484.843567,605.012573 480.279938,603.974304 
	C480.501831,603.617126 481.158508,603.028564 481.843628,602.993347 
	C495.523895,602.290344 509.201599,601.452209 522.891846,601.047913 
	C541.448059,600.499756 560.028687,599.698486 578.571716,600.141663 
	C591.914185,600.460571 605.209839,602.659790 618.531189,603.972351 
	C625.860779,604.694458 633.219666,605.153748 640.530334,606.025391 
	C650.372192,607.198792 660.237366,608.336060 669.987671,610.076294 
	C680.915771,612.026611 691.733948,614.600586 702.579590,616.995422 
	C703.874695,617.281372 705.042419,618.144775 706.269165,618.740540 
	C706.124878,619.162170 705.980530,619.583801 705.836243,620.005432 
	C669.882202,620.005432 633.928162,620.005432 597.510620,620.049805 
z"/>
<path fill="#128986" opacity="1.000000" stroke="none" 
	d="
M553.897400,504.997742 
	C548.003906,504.101105 542.364441,503.998718 536.531616,506.398529 
	C532.888123,507.897614 530.759216,509.697571 529.691589,513.308044 
	C529.059204,515.446655 527.996155,517.458008 526.902771,520.059387 
	C525.086548,518.424805 523.821289,517.286072 522.229492,516.056824 
	C522.261414,506.532471 526.539368,498.495514 530.908813,490.467896 
	C538.693604,476.165466 550.779602,467.353180 566.596497,464.804291 
	C583.787415,462.034027 600.793701,462.644653 612.717468,478.215607 
	C619.458313,487.018280 623.248352,497.108063 622.080750,508.600922 
	C621.725708,512.095642 622.032959,515.657715 621.950684,519.577271 
	C620.613342,518.065430 619.301270,516.202148 618.123108,514.257751 
	C615.073425,509.224274 610.650940,506.645874 605.298401,508.267395 
	C602.549561,509.100159 600.445984,512.063232 597.819641,514.256653 
	C597.166077,511.349884 596.486938,508.329468 595.390503,504.724121 
	C594.842041,496.729919 592.863098,489.907776 588.265930,484.016663 
	C582.078674,476.087982 574.134705,475.785980 566.886230,482.829254 
	C560.482178,489.051971 556.816467,496.783020 553.897400,504.997742 
z"/>
<path fill="#2EABD6" opacity="1.000000" stroke="none" 
	d="
M659.427246,637.920410 
	C663.198792,642.536255 668.285339,642.594604 672.782715,641.362366 
	C679.460083,639.532898 685.368469,640.585632 691.743896,642.632385 
	C695.765259,643.923401 700.475342,643.256348 704.867676,643.138306 
	C707.819580,643.058899 710.753906,642.089844 713.699890,642.069458 
	C720.484741,642.022400 721.672913,643.202026 723.139893,649.971985 
	C723.337463,650.883667 724.079163,651.677429 724.805908,652.817749 
	C715.052429,655.073303 705.102966,657.286621 695.060852,658.935242 
	C683.328369,660.861328 671.522400,662.350708 659.732605,663.910767 
	C655.660583,664.449646 651.545898,664.856018 647.442871,664.940063 
	C627.018555,665.358459 606.586975,666.043152 586.167908,665.798218 
	C577.548279,665.694885 568.953308,663.538757 560.415894,661.908997 
	C593.962708,656.269470 626.442871,646.887939 659.427246,637.920410 
z"/>
<path fill="#7EBE19" opacity="1.000000" stroke="none" 
	d="
M1104.428223,331.945618 
	C1097.528320,326.941589 1091.035522,322.007782 1084.197510,316.986176 
	C1090.353027,310.884186 1098.471069,307.810059 1106.802490,306.301666 
	C1127.081665,302.630249 1146.615601,305.043884 1164.052124,316.929871 
	C1175.890991,325.000092 1184.617920,335.894196 1190.561157,348.955627 
	C1190.919922,349.744324 1190.796875,350.752136 1191.058105,353.092255 
	C1179.716553,347.743286 1169.340088,342.849487 1159.233032,338.082733 
	C1159.572754,339.968781 1160.145996,343.151825 1160.901611,347.347473 
	C1149.450562,343.497589 1141.047607,335.439728 1130.792480,329.530426 
	C1130.020630,328.927795 1129.667114,328.765350 1129.313477,328.602936 
	C1129.549194,329.066345 1129.784912,329.529755 1130.020630,329.993195 
	C1130.870117,333.523529 1131.719604,337.053894 1132.520874,340.384247 
	C1123.191162,337.564178 1114.013184,334.789978 1104.428223,331.945618 
z"/>
<path fill="#0F7C7D" opacity="1.000000" stroke="none" 
	d="
M664.852173,488.028442 
	C664.245300,495.577271 663.693054,503.131012 663.015442,510.673492 
	C662.397034,517.557190 661.584229,524.423523 660.968933,531.307495 
	C660.557251,535.914795 660.146606,540.536621 660.077271,545.157104 
	C659.926880,555.172119 663.239990,557.836914 672.892944,555.869446 
	C673.997986,555.644165 675.181396,555.803040 676.328430,555.783875 
	C676.278992,557.119263 676.502502,558.534485 676.138977,559.778015 
	C671.244507,576.518494 649.687439,578.283264 638.012573,570.550903 
	C633.938171,567.852417 631.889893,563.361389 632.016479,558.250061 
	C632.279053,547.644714 632.421143,537.031433 632.966431,526.439636 
	C633.320251,519.567505 634.299072,512.727539 635.380249,505.551208 
	C636.581604,506.362274 637.400513,507.495392 638.219421,508.628479 
	C638.902161,509.168701 639.584839,509.708893 640.267517,510.249115 
	C641.281799,508.338745 642.056763,506.245056 643.354065,504.551483 
	C647.684998,498.897614 652.347656,493.731415 659.886292,492.096436 
	C661.748169,491.692596 663.207703,489.434265 664.852173,488.028442 
z"/>
<path fill="#FCBD4D" opacity="1.000000" stroke="none" 
	d="
M1059.072021,578.853149 
	C1055.358276,580.221130 1051.740479,582.344666 1047.914673,582.830750 
	C1027.845947,585.380432 1007.745544,587.729553 987.612427,589.702393 
	C977.932373,590.650940 968.153442,590.562378 958.424072,591.042297 
	C945.920532,591.658997 933.620789,593.455505 921.863037,597.983521 
	C921.111694,598.272949 920.679993,599.392395 920.086548,600.483398 
	C917.470459,600.451538 914.867249,600.062012 912.264099,599.672485 
	C912.188599,599.154175 912.113159,598.635803 912.037720,598.117493 
	C930.971802,584.808044 952.351624,576.764221 974.733643,569.901611 
	C986.757690,567.526917 998.421875,565.353882 1010.448120,563.036926 
	C1018.619385,562.910706 1026.428589,562.928467 1034.694824,563.183655 
	C1034.955688,564.222229 1034.911499,565.103149 1034.539307,565.811829 
	C1031.388672,571.812439 1031.278564,572.130371 1037.422485,573.859497 
	C1044.543457,575.863586 1051.847412,577.217224 1059.072021,578.853149 
z"/>
<path fill="#0F7C7D" opacity="1.000000" stroke="none" 
	d="
M719.893921,502.006592 
	C718.758362,512.284302 717.475037,522.548645 716.548584,532.845154 
	C716.074463,538.114563 715.856262,543.468567 716.227722,548.734497 
	C716.568970,553.572571 721.676575,555.945496 727.486694,554.824463 
	C729.056091,554.521545 730.770508,554.969971 732.418335,555.073425 
	C732.036316,556.566650 731.867188,558.156677 731.239197,559.538086 
	C725.083191,573.079529 711.151794,577.212891 698.359741,573.724243 
	C692.268066,572.062988 686.593262,565.752380 686.948120,557.690491 
	C687.406250,547.279602 687.437378,536.848206 687.998840,526.444275 
	C688.351685,519.906616 689.340210,513.403320 690.420959,506.552673 
	C692.469482,508.543152 694.097839,508.854431 697.005981,507.584534 
	C700.111938,506.228241 703.858582,505.902802 707.323547,505.911407 
	C712.029419,505.923126 716.830078,506.999420 719.893921,502.006592 
z"/>
<path fill="#13908C" opacity="1.000000" stroke="none" 
	d="
M511.017578,472.622589 
	C508.645447,470.755005 507.012299,468.723785 509.882111,465.557007 
	C512.070679,463.141937 510.517242,461.016998 506.390564,461.076660 
	C501.727203,461.144104 497.376770,460.884369 494.328613,455.580048 
	C491.346558,459.308167 488.853912,462.424408 486.102234,465.864502 
	C484.963684,464.272949 484.058014,463.006958 482.929871,461.429962 
	C482.383728,462.231995 481.955170,462.861420 481.344482,463.717590 
	C482.048584,454.700531 482.845123,445.447021 483.847504,436.215820 
	C484.761688,427.796783 485.916626,419.404114 486.928925,410.995422 
	C487.300293,407.910828 487.088837,404.656708 488.035583,401.772888 
	C488.766724,399.545746 490.507050,397.195862 492.461884,395.904144 
	C500.385406,390.668427 509.448761,392.057281 519.160889,392.060913 
	C518.656677,399.628601 518.359924,407.100250 517.615417,414.527008 
	C516.583618,424.819550 515.160339,435.072235 514.007568,445.353516 
	C513.003052,454.313354 512.141052,463.289185 511.017578,472.622589 
z"/>
<path fill="#0F7C7D" opacity="1.000000" stroke="none" 
	d="
M389.099792,508.447510 
	C390.111450,510.060638 391.058075,512.135193 392.063416,514.338440 
	C400.026031,510.633850 408.048462,507.042725 417.225006,507.605408 
	C418.194244,507.664825 419.257599,506.189209 420.541077,505.227264 
	C420.084106,513.567627 419.431488,522.113037 418.623108,530.643616 
	C417.847687,538.826294 416.892120,546.991821 416.052429,555.168640 
	C415.615417,559.424438 415.415588,563.710876 414.812653,567.941284 
	C414.352478,571.170044 413.018036,573.918457 409.103546,574.212158 
	C401.611877,574.774109 394.128784,575.500000 386.627716,575.814697 
	C385.818329,575.848633 384.132355,573.582275 384.185486,572.445251 
	C384.453094,566.720215 385.172455,561.016785 385.714386,555.303955 
	C386.148499,550.727661 386.644379,546.154785 386.956879,541.569763 
	C387.698730,530.686218 388.348053,519.796265 389.099792,508.447510 
z"/>
<path fill="#EC830C" opacity="1.000000" stroke="none" 
	d="
M1059.523682,578.854004 
	C1051.847412,577.217224 1044.543457,575.863586 1037.422485,573.859497 
	C1031.278564,572.130371 1031.388672,571.812439 1034.539307,565.811829 
	C1034.911499,565.103149 1034.955688,564.222229 1035.140869,563.003296 
	C1038.401123,555.294250 1041.725342,548.026123 1044.921875,540.702209 
	C1046.626831,536.795654 1048.111328,532.792847 1050.133789,528.580811 
	C1050.572266,528.328186 1050.994507,528.380066 1050.998535,528.760742 
	C1051.011841,532.390442 1051.017944,536.098755 1055.534302,535.672180 
	C1059.032349,535.341858 1062.827393,534.381958 1064.473999,530.071655 
	C1066.233887,530.019592 1067.586670,529.987732 1069.030151,530.239258 
	C1070.635254,529.953918 1072.296509,529.618408 1073.638184,528.774719 
	C1078.500244,525.717102 1081.279785,519.645630 1087.815063,518.986572 
	C1084.883057,533.347595 1081.951050,547.708679 1078.687988,562.766846 
	C1076.934448,568.380798 1075.512085,573.297607 1074.089600,578.214478 
	C1069.384766,578.427979 1064.680054,578.641418 1059.523682,578.854004 
z"/>
<path fill="#7EBE19" opacity="1.000000" stroke="none" 
	d="
M1027.548096,316.120270 
	C1025.533691,319.520935 1023.401001,323.171051 1020.552734,326.133087 
	C1017.531372,329.275177 1013.181885,331.295258 1014.635132,336.956238 
	C1014.874146,337.887268 1013.258423,339.294434 1012.287842,340.690186 
	C1007.882141,343.328979 1003.500000,345.488953 999.539246,348.252899 
	C993.669800,352.348755 988.123413,356.905426 982.377136,361.182190 
	C981.433228,361.884735 980.170044,362.158295 978.122498,363.024231 
	C979.380615,358.129761 980.393127,354.190430 981.405701,350.251068 
	C981.086304,349.966278 980.766846,349.681488 980.447388,349.396698 
	C969.473633,359.029541 958.499817,368.662384 946.566833,379.137238 
	C947.820435,373.408783 948.393860,368.468262 949.993286,363.885895 
	C956.526733,345.167664 967.995483,330.356628 985.996887,321.432770 
	C998.157532,315.404388 1011.089294,313.159821 1024.623291,315.992004 
	C1025.424072,316.159576 1026.283203,316.048492 1027.548096,316.120270 
z"/>
<path fill="#0F7C7D" opacity="1.000000" stroke="none" 
	d="
M476.624878,511.246643 
	C477.929382,511.287598 479.621704,512.059814 479.767761,511.833618 
	C482.386719,507.777618 485.439270,509.790680 488.509918,510.980133 
	C492.150665,512.390442 495.495819,512.724548 498.311615,509.010895 
	C499.099487,507.971893 501.161591,507.899109 502.639191,507.383118 
	C502.944489,508.863281 503.373383,510.330231 503.533112,511.825958 
	C504.133057,517.443542 504.645142,523.070496 505.522369,528.838257 
	C505.905060,529.437378 505.955536,529.892273 505.792297,530.854492 
	C505.688263,531.899536 505.797882,532.437195 505.907532,532.974792 
	C504.968842,543.907288 504.041290,554.840759 503.087067,565.771912 
	C502.557617,571.837402 499.987427,574.565857 494.036224,575.066589 
	C487.311768,575.632385 480.570740,576.001709 472.866730,576.521912 
	C471.957672,554.435242 475.705353,533.034973 476.624878,511.246643 
z"/>
<path fill="#7EBE19" opacity="1.000000" stroke="none" 
	d="
M1085.436768,310.941528 
	C1084.599609,306.987579 1081.296509,307.356293 1078.453247,306.996643 
	C1074.146362,306.451935 1069.837036,305.925446 1065.237061,305.136475 
	C1064.945190,304.881744 1064.994141,304.493347 1064.982544,303.992615 
	C1064.962280,303.288330 1064.953735,303.084717 1064.945190,302.881134 
	C1067.139282,292.722656 1072.045776,284.075562 1080.407959,277.911987 
	C1085.684204,274.022980 1091.363525,270.261017 1097.437256,267.961426 
	C1109.857056,263.259216 1122.922729,264.275146 1135.828003,265.897949 
	C1141.633911,266.627960 1147.365234,267.950409 1152.972656,270.047272 
	C1142.483765,272.979340 1131.994873,275.911438 1121.183472,278.933655 
	C1123.433105,280.616455 1125.199463,281.937744 1128.013550,284.042877 
	C1117.974487,285.575439 1109.195557,286.915619 1100.416504,288.255768 
	C1100.284302,288.751923 1100.152100,289.248077 1100.019897,289.744232 
	C1103.814697,290.627411 1107.609497,291.510590 1110.466431,292.175476 
	C1102.563965,298.118958 1094.145630,304.450500 1085.436768,310.941528 
z"/>
<path fill="#EC830C" opacity="1.000000" stroke="none" 
	d="
M1029.169067,621.370728 
	C1031.865967,619.342896 1034.646118,616.630676 1037.746704,616.194519 
	C1054.270020,613.869690 1070.891846,612.255432 1087.441040,610.099792 
	C1095.088989,609.103577 1102.680908,607.581848 1110.225342,605.959595 
	C1111.921143,605.595032 1113.312622,603.814697 1114.914795,602.339661 
	C1118.482910,601.720581 1122.338135,602.296875 1125.405640,601.003967 
	C1132.458496,598.031555 1139.127930,594.149292 1146.100342,590.322571 
	C1153.000366,594.324829 1159.766235,598.620178 1166.493042,602.976074 
	C1167.677612,603.743103 1168.697998,604.763733 1170.770386,606.471924 
	C1161.769409,609.105347 1153.461792,611.662476 1145.083130,613.960144 
	C1128.994995,618.371887 1112.632568,621.368408 1095.942261,621.916443 
	C1078.194214,622.499084 1060.432007,622.712219 1042.673950,622.874390 
	C1038.253174,622.914795 1033.825073,622.137817 1029.169067,621.370728 
z"/>
<path fill="#128986" opacity="1.000000" stroke="none" 
	d="
M664.901733,487.600281 
	C663.207703,489.434265 661.748169,491.692596 659.886292,492.096436 
	C652.347656,493.731415 647.684998,498.897614 643.354065,504.551483 
	C642.056763,506.245056 641.281799,508.338745 640.267517,510.249115 
	C639.584839,509.708893 638.902161,509.168701 638.219421,508.628479 
	C637.400513,507.495392 636.581604,506.362274 635.464478,505.107513 
	C636.081726,496.543854 636.995544,488.101685 637.913147,479.659943 
	C638.814209,471.370911 639.751404,463.085602 640.604492,454.791656 
	C640.890869,452.007660 640.967529,449.202087 641.734375,446.454651 
	C642.560303,449.032867 642.791931,451.562805 643.023621,454.092773 
	C643.429993,454.300415 643.836426,454.508087 644.242859,454.715729 
	C646.163513,450.055115 648.619019,445.528412 649.830750,440.690247 
	C650.752808,437.008331 651.129517,433.858063 655.848022,433.893707 
	C656.615784,433.899536 657.367981,433.286255 658.160461,433.145172 
	C662.378906,432.394043 666.607971,431.702026 670.833252,430.989624 
	C669.951843,439.948944 669.062256,448.907532 668.191589,457.867920 
	C667.475830,465.233734 666.817627,472.605377 666.059082,479.966705 
	C665.810364,482.380920 665.327148,484.770966 664.901733,487.600281 
z"/>
<path fill="#13908C" opacity="1.000000" stroke="none" 
	d="
M425.993164,444.531738 
	C424.071594,443.985931 422.238647,442.247620 420.313385,442.138580 
	C413.810791,441.770142 407.796906,445.930267 405.471283,452.044281 
	C403.830414,456.358185 402.580383,460.819580 400.999115,465.157990 
	C400.424683,466.734131 399.395935,468.144745 398.574432,469.630859 
	C397.190552,468.260864 395.806671,466.890869 394.197266,465.251648 
	C394.013214,464.531097 394.054657,464.079803 394.248901,463.188782 
	C394.502747,462.466400 394.435059,462.224640 394.198639,462.023773 
	C394.764893,454.682007 395.366211,447.342712 395.886230,439.997681 
	C396.293854,434.239960 396.609039,428.475555 396.950348,422.713257 
	C397.311523,416.616333 397.595398,410.514160 398.025208,404.422211 
	C398.364471,399.614319 402.144928,395.495758 407.360077,394.960358 
	C414.357513,394.241974 421.410339,394.063110 429.162811,393.610352 
	C428.714142,403.606262 428.410736,412.800079 427.855011,421.978638 
	C427.408295,429.357300 426.656097,436.717438 425.993164,444.531738 
z"/>
<path fill="#2EABD6" opacity="1.000000" stroke="none" 
	d="
M543.010437,656.829712 
	C535.345947,657.546021 527.694885,658.528320 520.013794,658.916321 
	C508.441437,659.500793 496.821075,660.345703 485.268860,659.884460 
	C454.810303,658.668335 424.952667,654.135803 396.997253,640.994690 
	C396.151398,640.597046 395.364014,640.075073 393.364044,638.935791 
	C400.177460,639.716736 405.680969,640.296936 411.170380,640.988953 
	C418.745544,641.943970 426.284576,643.500977 433.884644,643.875549 
	C448.440979,644.593140 463.047821,645.263550 477.599335,644.821716 
	C491.494843,644.399780 505.346588,642.537903 519.897095,641.431152 
	C527.073792,645.482422 533.611267,649.347900 540.033142,653.396606 
	C541.259460,654.169861 542.029724,655.666748 543.010437,656.829712 
z"/>
<path fill="#7EBE19" opacity="1.000000" stroke="none" 
	d="
M1051.846191,301.641357 
	C1044.099976,304.238342 1036.320190,306.495331 1028.208984,308.921997 
	C1021.311890,306.962524 1014.830872,304.488037 1008.145508,302.844879 
	C1004.613708,301.976807 1000.718750,302.383545 997.001038,302.536713 
	C993.890747,302.664856 990.799805,303.260925 987.700256,303.649750 
	C987.476501,303.210938 987.252808,302.772125 987.029053,302.333313 
	C988.539978,301.159088 990.050903,299.984863 992.098999,298.514832 
	C993.119324,297.704865 993.602417,297.190704 993.720459,297.065094 
	C989.736938,297.065094 985.672180,296.968964 981.613892,297.089447 
	C976.558716,297.239502 971.508972,297.568176 966.456848,297.819733 
	C963.745850,298.017822 961.034790,298.215881 958.323792,298.413940 
	C971.335999,286.845581 985.840027,280.418427 1003.041565,279.844482 
	C1014.677551,279.456238 1025.719360,281.115784 1035.499146,287.076019 
	C1041.571411,290.776794 1046.416504,296.490906 1051.846191,301.641357 
z"/>
<path fill="#FEBA04" opacity="1.000000" stroke="none" 
	d="
M1063.896240,354.529724 
	C1064.076416,350.171783 1064.324707,346.242859 1064.655518,341.007111 
	C1067.853882,343.445099 1069.861938,344.975830 1072.014893,346.828308 
	C1074.907959,357.030945 1078.110107,366.812988 1080.288818,376.817902 
	C1082.974487,389.151123 1084.909058,401.653229 1086.964111,414.115997 
	C1087.890747,419.735565 1088.323120,425.436676 1088.475708,431.550293 
	C1081.336304,432.296509 1074.624146,434.302887 1068.145996,431.107941 
	C1068.094849,419.333160 1068.537231,407.529785 1067.857300,395.791412 
	C1067.143799,383.472443 1065.344238,371.216888 1064.051147,358.930298 
	C1063.913086,357.617920 1063.988159,356.283112 1063.896240,354.529724 
z"/>
<path fill="#FE9102" opacity="1.000000" stroke="none" 
	d="
M1087.882080,518.561890 
	C1081.279785,519.645630 1078.500244,525.717102 1073.638184,528.774719 
	C1072.296509,529.618408 1070.635254,529.953918 1068.755615,530.023315 
	C1066.525269,528.929138 1064.576538,528.515686 1062.811890,527.702698 
	C1058.903320,525.901611 1054.134521,525.062378 1053.054077,519.757874 
	C1054.434326,514.301697 1055.814575,508.845520 1057.945557,503.245972 
	C1063.236450,503.513458 1067.776611,503.924286 1072.740112,504.373413 
	C1067.712280,501.239136 1063.429810,498.569427 1059.147339,495.899719 
	C1060.103516,491.539337 1061.059570,487.178925 1062.409790,482.514984 
	C1068.622070,487.437958 1072.098755,486.919708 1078.415283,479.968079 
	C1082.453979,480.699432 1086.068359,481.410278 1089.713867,482.562622 
	C1089.806763,485.088318 1089.868652,487.172577 1089.930542,489.256805 
	C1089.270142,498.883636 1088.609741,508.510437 1087.882080,518.561890 
z"/>
<path fill="#FEA505" opacity="1.000000" stroke="none" 
	d="
M953.158569,476.008606 
	C958.918274,478.524872 964.087585,475.187469 969.469543,474.246490 
	C973.000183,473.629150 976.352722,471.909149 979.886719,471.425537 
	C982.269775,471.099426 984.830139,472.067932 987.577881,472.707947 
	C990.232666,481.911011 992.607544,490.867004 995.019531,499.812958 
	C995.512695,501.642090 996.145447,503.433594 996.773804,505.618103 
	C991.537537,509.701843 985.533752,509.848145 979.327759,510.184875 
	C974.015076,510.473083 968.790039,512.376648 962.984253,513.794312 
	C962.258606,514.035278 962.075012,514.047729 961.542725,513.848022 
	C960.284607,508.728485 959.496643,503.794708 958.437622,498.919769 
	C956.773987,491.261871 954.927551,483.643646 953.158569,476.008606 
z"/>
<path fill="#FEA505" opacity="1.000000" stroke="none" 
	d="
M906.547302,472.144470 
	C908.222168,472.466888 909.927124,472.604095 910.865723,473.523590 
	C916.358398,478.904053 922.899597,479.689911 930.064209,478.523682 
	C931.437866,478.300049 932.913879,478.704559 934.691650,479.379730 
	C930.382935,491.333099 925.725159,502.726074 921.067383,514.119019 
	C918.065979,514.382874 915.012634,514.382629 912.073486,514.961975 
	C904.403931,516.473694 896.958374,516.222595 889.346069,512.952637 
	C894.708069,499.387054 900.465698,485.853851 906.547302,472.144470 
z"/>
<path fill="#13908C" opacity="1.000000" stroke="none" 
	d="
M670.952148,430.728638 
	C666.607971,431.702026 662.378906,432.394043 658.160461,433.145172 
	C657.367981,433.286255 656.615784,433.899536 655.848022,433.893707 
	C651.129517,433.858063 650.752808,437.008331 649.830750,440.690247 
	C648.619019,445.528412 646.163513,450.055115 644.242859,454.715729 
	C643.836426,454.508087 643.429993,454.300415 643.023621,454.092773 
	C642.791931,451.562805 642.560303,449.032867 642.078125,446.205750 
	C641.875427,443.902344 641.923340,441.896027 642.239502,439.615814 
	C642.972229,439.325989 643.436768,439.310059 643.901245,439.294159 
	C643.326233,438.194183 642.751282,437.094208 642.176331,435.994202 
	C642.461853,435.207214 642.747375,434.420227 643.380981,433.222961 
	C643.545593,431.873108 643.362122,430.933502 643.178711,429.993896 
	C644.082825,419.895905 644.738770,409.766846 645.997681,399.713257 
	C646.610840,394.816650 651.466492,394.521149 655.077087,394.047333 
	C659.639465,393.448669 664.345886,393.833191 668.985046,393.970398 
	C672.689209,394.079926 675.105835,396.409302 674.858459,399.862274 
	C674.252686,408.317596 673.026245,416.728516 671.691895,425.670227 
	C671.498413,427.124054 671.662598,428.064972 671.826721,429.005859 
	C671.574829,429.493134 671.322937,429.980377 670.952148,430.728638 
z"/>
<path fill="#FEA505" opacity="1.000000" stroke="none" 
	d="
M1077.990845,479.947601 
	C1072.098755,486.919708 1068.622070,487.437958 1062.488770,482.101349 
	C1063.447021,474.983795 1065.120972,468.020325 1065.895508,460.958160 
	C1066.950195,451.342957 1067.318237,441.652466 1068.063232,431.551086 
	C1074.624146,434.302887 1081.336304,432.296509 1088.404297,432.002075 
	C1089.222290,436.287903 1089.607544,440.571564 1089.886475,445.780487 
	C1089.676147,456.427185 1089.572144,466.148621 1089.114990,475.930786 
	C1085.429199,476.653168 1082.082642,477.256927 1078.782227,478.052826 
	C1078.389038,478.147614 1078.248535,479.290527 1077.990845,479.947601 
z"/>
<path fill="#128986" opacity="1.000000" stroke="none" 
	d="
M719.964905,501.572510 
	C716.830078,506.999420 712.029419,505.923126 707.323547,505.911407 
	C703.858582,505.902802 700.111938,506.228241 697.005981,507.584534 
	C694.097839,508.854431 692.469482,508.543152 690.493652,506.102661 
	C691.119263,498.878967 692.116821,491.781219 692.953369,484.664520 
	C693.412720,480.756226 693.435242,476.791504 694.012085,472.905273 
	C694.184631,471.742981 695.339905,470.285034 696.427368,469.770477 
	C704.500732,465.949921 713.028503,465.173706 721.630615,467.283722 
	C722.667480,467.538055 723.620850,471.007324 723.438965,472.872009 
	C722.517883,482.314972 721.208923,491.720062 719.964905,501.572510 
z"/>
<path fill="#2FB9D9" opacity="1.000000" stroke="none" 
	d="
M919.992554,661.166443 
	C946.102051,659.328430 971.474060,663.344971 997.098450,670.661072 
	C983.899475,671.460999 971.366821,671.950928 958.889038,673.058960 
	C948.221130,674.006287 937.621643,675.707886 926.980591,676.981628 
	C923.071472,677.449585 919.135498,677.799805 915.202332,677.939575 
	C903.450012,678.357239 891.692993,678.644226 879.559570,678.572510 
	C882.975098,676.442200 886.613770,674.047607 890.592834,673.131531 
	C901.084290,670.716492 911.240112,667.740967 919.992554,661.166443 
z"/>
<path fill="#2FB9D9" opacity="1.000000" stroke="none" 
	d="
M879.478394,656.054138 
	C870.649780,653.700806 862.195496,651.504517 853.901855,648.813232 
	C850.478088,647.702087 847.399170,645.528381 844.084900,643.502319 
	C849.639465,642.099915 855.237366,640.750061 860.915405,640.046326 
	C866.536133,639.349670 872.237610,639.304810 878.835022,639.002563 
	C885.578491,639.032471 891.431702,639.472534 897.192993,638.932129 
	C905.772156,638.127441 913.771240,640.260498 921.645630,642.923706 
	C931.776794,646.350281 940.652283,653.558289 952.126770,652.937683 
	C952.601501,652.911987 953.088196,653.105713 953.569214,653.197205 
	C953.371460,653.745605 953.173706,654.294006 952.975952,654.842468 
	C946.928101,654.223206 940.880249,653.603943 934.050171,652.705566 
	C924.844299,652.563721 916.420654,652.701050 907.996948,652.838257 
	C898.637085,653.896118 889.277283,654.953918 879.478394,656.054138 
z"/>
<path fill="#13908C" opacity="1.000000" stroke="none" 
	d="
M857.935425,432.583221 
	C847.021545,428.878540 844.164551,429.690338 831.246887,445.421722 
	C830.549805,441.935669 830.024536,439.308624 829.297241,436.355286 
	C830.041016,428.245056 830.991638,420.461670 831.929871,412.676819 
	C832.319519,409.443573 832.391357,406.133118 833.186523,403.004852 
	C833.559143,401.538727 835.173157,399.476837 836.447815,399.300781 
	C844.052307,398.250122 851.715149,397.501526 859.380249,397.188568 
	C860.171326,397.156281 861.947388,400.721436 861.824585,402.518860 
	C861.378906,409.041931 860.336609,415.525360 859.484314,422.019135 
	C859.039368,425.409668 858.521545,428.790619 857.935425,432.583221 
z"/>
<path fill="#40C7DF" opacity="1.000000" stroke="none" 
	d="
M953.409790,654.923950 
	C953.173706,654.294006 953.371460,653.745605 953.569214,653.197205 
	C953.088196,653.105713 952.601501,652.911987 952.126770,652.937683 
	C940.652283,653.558289 931.776794,646.350281 921.645630,642.923706 
	C913.771240,640.260498 905.772156,638.127441 897.192993,638.932129 
	C891.431702,639.472534 885.578491,639.032471 879.285889,638.992371 
	C879.973755,638.612427 881.140076,637.983398 882.310852,637.974915 
	C892.784729,637.898560 903.306885,637.311096 913.720398,638.107849 
	C923.997864,638.894226 934.190247,640.972473 944.374207,642.746521 
	C953.236572,644.290344 962.094055,645.952820 970.842041,648.032349 
	C977.113892,649.523254 983.155640,651.958435 989.388123,653.647339 
	C993.404968,654.735901 997.572021,655.290527 1001.688049,655.988586 
	C1009.314026,657.281860 1016.929810,658.668396 1024.592163,659.703003 
	C1030.253052,660.467407 1035.981201,660.735046 1041.473755,661.605591 
	C1039.167480,662.324829 1036.912354,662.290710 1035.001099,663.084717 
	C1031.879028,664.381714 1028.981201,666.218323 1025.988647,667.827271 
	C1016.612000,666.369934 1007.201660,665.098816 997.866394,663.412476 
	C983.165649,660.756897 968.515320,657.822021 953.409790,654.923950 
z"/>
<path fill="#34C0DC" opacity="1.000000" stroke="none" 
	d="
M543.438354,656.901489 
	C542.029724,655.666748 541.259460,654.169861 540.033142,653.396606 
	C533.611267,649.347900 527.073792,645.482422 520.303711,641.347839 
	C531.208008,639.484375 542.382690,637.809753 553.565063,636.188477 
	C555.021423,635.977356 556.517639,636.040283 558.788818,635.985840 
	C560.725830,635.706299 561.869507,635.417175 563.013123,635.128113 
	C563.013123,635.128113 563.423462,634.975464 564.054016,634.983154 
	C575.226929,637.619080 585.786011,640.184509 596.286194,642.971802 
	C597.348328,643.253784 598.054993,644.874756 598.926697,645.874268 
	C580.573242,649.573975 562.219788,653.273682 543.438354,656.901489 
z"/>
<path fill="#40C7DF" opacity="1.000000" stroke="none" 
	d="
M599.331848,645.948120 
	C598.054993,644.874756 597.348328,643.253784 596.286194,642.971802 
	C585.786011,640.184509 575.226929,637.619080 564.265015,634.924927 
	C571.080811,633.552063 578.288879,632.061523 585.558044,630.982483 
	C595.697021,629.477600 605.849731,627.587646 616.054382,627.117371 
	C630.513123,626.451050 645.024475,626.928284 659.513367,626.917236 
	C661.244385,626.915894 662.975464,626.916992 664.853210,627.950012 
	C643.147766,633.973938 621.442383,639.997925 599.331848,645.948120 
z"/>
<path fill="#13908C" opacity="1.000000" stroke="none" 
	d="
M726.286133,421.708130 
	C732.996582,430.911438 727.720459,444.065552 716.855774,446.013031 
	C713.958740,446.532257 710.865967,447.247986 708.060303,446.753815 
	C698.538757,445.076630 696.371277,442.197571 696.891907,431.741760 
	C697.178345,425.988556 703.523132,419.077667 709.820435,419.160522 
	C715.209839,419.231415 721.171570,416.868927 726.286133,421.708130 
z"/>
<path fill="#34C0DC" opacity="1.000000" stroke="none" 
	d="
M1026.411377,667.902649 
	C1028.981201,666.218323 1031.879028,664.381714 1035.001099,663.084717 
	C1036.912354,662.290710 1039.167480,662.324829 1041.694336,661.972595 
	C1074.424316,663.585205 1105.920776,658.125793 1137.154663,650.362427 
	C1137.282104,650.816345 1137.409546,651.270264 1137.537109,651.724121 
	C1132.310791,654.143127 1127.265381,657.135620 1121.818237,658.854126 
	C1112.345825,661.842285 1102.688599,664.331238 1092.985840,666.471375 
	C1086.812744,667.833008 1080.438477,668.527649 1074.117188,668.915588 
	C1064.046021,669.533752 1053.941772,669.934937 1043.855713,669.861389 
	C1038.177490,669.820007 1032.507812,668.643250 1026.411377,667.902649 
z"/>
<path fill="#FCBD4D" opacity="1.000000" stroke="none" 
	d="
M1074.161377,578.543701 
	C1075.512085,573.297607 1076.934448,568.380798 1078.595215,563.142700 
	C1079.659424,563.539429 1080.370850,564.615540 1081.328369,564.921692 
	C1096.496460,569.771057 1111.696045,574.521606 1127.066406,579.643860 
	C1111.494141,584.646301 1095.472900,583.394531 1079.484375,581.966125 
	C1077.656494,581.802856 1075.979980,579.945007 1074.161377,578.543701 
z"/>
<path fill="#40C7DF" opacity="1.000000" stroke="none" 
	d="
M919.562988,661.100098 
	C911.240112,667.740967 901.084290,670.716492 890.592834,673.131531 
	C886.613770,674.047607 882.975098,676.442200 879.097412,678.495361 
	C865.330688,679.115051 851.579407,680.029236 838.490479,674.470947 
	C865.770874,672.148560 891.601990,661.467896 919.562988,661.100098 
z"/>
<path fill="#FCB62F" opacity="1.000000" stroke="none" 
	d="
M1052.700928,519.935181 
	C1054.134521,525.062378 1058.903320,525.901611 1062.811890,527.702698 
	C1064.576538,528.515686 1066.525269,528.929138 1068.665039,529.739868 
	C1067.586670,529.987732 1066.233887,530.019592 1064.040283,530.029114 
	C1059.131104,529.464539 1055.062866,528.922302 1050.994507,528.380066 
	C1050.994507,528.380066 1050.572266,528.328186 1050.361450,528.305176 
	C1050.882935,525.559021 1051.615356,522.835754 1052.700928,519.935181 
z"/>
<path fill="#FCBD4D" opacity="1.000000" stroke="none" 
	d="
M911.508545,539.053589 
	C912.572021,538.693970 914.097534,537.967346 915.627319,537.957886 
	C931.510254,537.860535 947.394165,537.833191 963.276855,537.934143 
	C964.886230,537.944336 966.489502,538.920349 968.098022,539.898926 
	C966.255066,539.911804 964.411804,539.105042 962.563721,539.093689 
	C945.700500,538.990051 928.836426,539.024963 911.508545,539.053589 
z"/>
<path fill="#FEBA04" opacity="1.000000" stroke="none" 
	d="
M1059.058838,496.302979 
	C1063.429810,498.569427 1067.712280,501.239136 1072.740112,504.373413 
	C1067.776611,503.924286 1063.236450,503.513458 1058.267334,503.054474 
	C1058.215576,500.906311 1058.592896,498.806305 1059.058838,496.302979 
z"/>
<path fill="#FCBD4D" opacity="1.000000" stroke="none" 
	d="
M1089.468018,475.870026 
	C1089.572144,466.148621 1089.676147,456.427185 1089.863281,446.223694 
	C1090.325195,446.384674 1091.036255,447.028748 1091.034180,447.670532 
	C1090.990356,461.396210 1090.866577,475.121643 1090.344482,489.051941 
	C1089.868652,487.172577 1089.806763,485.088318 1089.740356,482.115051 
	C1089.646606,479.440704 1089.557251,477.655365 1089.468018,475.870026 
z"/>
<path fill="#40C7DF" opacity="1.000000" stroke="none" 
	d="
M442.059937,631.486328 
	C455.633972,631.061401 469.416412,631.030090 483.674164,631.046387 
	C483.483643,631.420105 482.817627,632.030579 482.151947,632.030212 
	C468.857361,632.022400 455.562836,631.944031 442.059937,631.486328 
z"/>
<path fill="#40C7DF" opacity="1.000000" stroke="none" 
	d="
M1081.547852,633.056152 
	C1078.620850,633.435425 1075.228027,634.003845 1071.835327,634.003235 
	C1063.791260,634.001770 1055.747070,633.730408 1047.352051,633.350220 
	C1058.361572,633.083740 1069.721802,633.035156 1081.547852,633.056152 
z"/>
<path fill="#40C7DF" opacity="1.000000" stroke="none" 
	d="
M865.954102,604.510803 
	C855.378357,604.937378 844.587036,604.972900 833.317627,604.976196 
	C833.509338,604.609802 834.179077,603.985352 834.848938,603.985107 
	C845.145447,603.982056 855.441956,604.060364 865.954102,604.510803 
z"/>
<path fill="#FCBD4D" opacity="1.000000" stroke="none" 
	d="
M966.881104,297.861694 
	C971.508972,297.568176 976.558716,297.239502 981.613892,297.089447 
	C985.672180,296.968964 989.736938,297.065094 993.720459,297.065094 
	C993.602417,297.190704 993.119324,297.704865 992.345459,298.300232 
	C983.804932,298.222198 975.555176,298.062958 966.881104,297.861694 
z"/>
<path fill="#40C7DF" opacity="1.000000" stroke="none" 
	d="
M908.462402,652.907288 
	C916.420654,652.701050 924.844299,652.563721 933.626221,652.627930 
	C925.632202,652.878357 917.280029,652.927307 908.462402,652.907288 
z"/>
<path fill="#2FB9D9" opacity="1.000000" stroke="none" 
	d="
M835.571533,644.078308 
	C833.524170,647.918152 830.072510,647.372498 826.200745,646.083252 
	C828.983337,645.223389 832.072449,644.614868 835.571533,644.078308 
z"/>
<path fill="#128986" opacity="1.000000" stroke="none" 
	d="
M642.112671,436.371429 
	C642.751282,437.094208 643.326233,438.194183 643.901245,439.294159 
	C643.436768,439.310059 642.972229,439.325989 642.314941,439.191223 
	C642.097778,438.276581 642.073425,437.512604 642.112671,436.371429 
z"/>
<path fill="#128986" opacity="1.000000" stroke="none" 
	d="
M671.890503,428.633545 
	C671.662598,428.064972 671.498413,427.124054 671.616760,426.091248 
	C671.917664,426.753296 671.935974,427.507294 671.890503,428.633545 
z"/>
<path fill="#128986" opacity="1.000000" stroke="none" 
	d="
M643.112671,430.367493 
	C643.362122,430.933502 643.545593,431.873108 643.452026,432.908997 
	C643.132202,432.250549 643.089355,431.495819 643.112671,430.367493 
z"/>
<path fill="#2FB9D9" opacity="1.000000" stroke="none" 
	d="
M812.574646,648.073975 
	C811.511597,648.426208 810.050903,648.704407 808.204712,648.947876 
	C809.271851,648.608765 810.724426,648.304382 812.574646,648.073975 
z"/>
<path fill="#2FB9D9" opacity="1.000000" stroke="none" 
	d="
M842.598083,643.095093 
	C841.842529,643.436340 840.712280,643.706665 839.222046,643.961304 
	C839.982544,643.638489 841.102905,643.331299 842.598083,643.095093 
z"/>
<path fill="#0F7C7D" opacity="1.000000" stroke="none" 
	d="
M421.313904,502.887817 
	C421.241974,502.406433 421.440979,501.798248 421.904327,501.150574 
	C421.974060,501.661072 421.779419,502.211060 421.313904,502.887817 
z"/>
<path fill="#40C7DF" opacity="1.000000" stroke="none" 
	d="
M562.631287,635.057251 
	C561.869507,635.417175 560.725830,635.706299 559.216797,635.965088 
	C559.984009,635.618652 561.116760,635.302490 562.631287,635.057251 
z"/>
<path fill="#2FB9D9" opacity="1.000000" stroke="none" 
	d="
M823.625000,646.074219 
	C823.158508,646.418213 822.340088,646.689758 821.188721,646.951904 
	C821.661560,646.628906 822.467285,646.315308 823.625000,646.074219 
z"/>
<path fill="#FEA505" opacity="1.000000" stroke="none" 
	d="
M888.636108,513.065735 
	C888.790161,513.486267 888.650574,514.027039 888.330444,514.786011 
	C888.214111,514.398193 888.278259,513.792053 888.636108,513.065735 
z"/>
<path fill="#128986" opacity="1.000000" stroke="none" 
	d="
M505.970642,532.652954 
	C505.797882,532.437195 505.688263,531.899536 505.743042,531.195618 
	C505.949554,531.463257 505.991638,531.897217 505.970642,532.652954 
z"/>
<path fill="#6CB41D" opacity="1.000000" stroke="none" 
	d="
M1064.711426,302.984131 
	C1064.953735,303.084717 1064.962280,303.288330 1064.964478,303.797729 
	C1064.797974,303.764740 1064.637817,303.425934 1064.711426,302.984131 
z"/>
<path fill="#128986" opacity="1.000000" stroke="none" 
	d="
M394.159668,462.259766 
	C394.435059,462.224640 394.502747,462.466400 394.315399,462.855408 
	C394.229034,462.961731 394.120697,462.495758 394.159668,462.259766 
z"/>
<path fill="#7EBE19" opacity="1.000000" stroke="none" 
	d="
M1084.369263,312.050781 
	C1084.188477,311.728821 1084.387329,311.470215 1084.911865,311.185272 
	C1084.976685,311.402008 1084.813843,311.720428 1084.369263,312.050781 
z"/>
<path fill="#7EBE19" opacity="1.000000" stroke="none" 
	d="
M1083.358887,313.027527 
	C1083.203125,312.745209 1083.389038,312.500122 1083.851074,312.197937 
	C1083.913818,312.394897 1083.771606,312.702881 1083.358887,313.027527 
z"/>
<path fill="#7EBE19" opacity="1.000000" stroke="none" 
	d="
M1082.541138,314.030426 
	C1082.337769,313.810150 1082.458496,313.550598 1082.866211,313.211884 
	C1083.139160,313.433167 1083.043213,313.719299 1082.541138,314.030426 
z"/>
<path fill="#000000" opacity="1.000000" stroke="none" 
	d="
M1041.163574,318.604065 
	C1042.286499,318.971832 1043.366089,319.466492 1044.445801,319.961151 
	C1044.326538,320.218384 1044.207275,320.475616 1044.088013,320.732849 
	C1043.155151,320.340881 1042.222168,319.948914 1041.150391,319.266541 
	C1041.011353,318.976166 1041.120239,318.730988 1041.163574,318.604065 
z"/>
<path fill="#000000" opacity="1.000000" stroke="none" 
	d="
M921.046265,514.542603 
	C925.725159,502.726074 930.382935,491.333099 935.035461,479.566864 
	C937.356384,473.923950 939.695435,468.659943 942.004150,463.382690 
	C943.473816,460.023346 944.898560,456.644318 946.792908,452.225708 
	C949.040039,460.548676 951.020813,467.884827 953.080017,475.614807 
	C954.927551,483.643646 956.773987,491.261871 958.437622,498.919769 
	C959.496643,503.794708 960.284607,508.728485 961.582031,514.165039 
	C961.956116,515.120911 961.942322,515.547607 961.928528,515.974365 
	C961.928528,515.974365 961.993042,515.995667 961.530640,515.995117 
	C951.650391,516.044556 942.232544,516.094543 932.814636,516.144592 
	C929.186340,516.394104 925.559448,516.687256 921.926880,516.807434 
	C921.646973,516.816711 921.326721,515.608521 921.046265,514.542603 
z"/>
<path fill="#FCBD4D" opacity="1.000000" stroke="none" 
	d="
M933.126587,516.453125 
	C942.232544,516.094543 951.650391,516.044556 961.537964,515.961914 
	C958.955261,516.320068 955.906799,517.001709 952.849915,517.041443 
	C946.381775,517.125793 939.909241,516.875061 933.126587,516.453125 
z"/>
<path fill="#FCBD4D" opacity="1.000000" stroke="none" 
	d="
M962.249634,515.921875 
	C961.942322,515.547607 961.956116,515.120911 961.930664,514.377136 
	C962.075012,514.047729 962.258606,514.035278 962.718201,514.028564 
	C962.853027,514.645996 962.711853,515.257751 962.249634,515.921875 
z"/>
<path fill="#FEA505" opacity="1.000000" stroke="none" 
	d="
M919.477356,516.511963 
	C919.461975,516.479187 919.492737,516.544678 919.477356,516.511963 
z"/>
<path fill="#000000" opacity="1.000000" stroke="none" 
	d="
M778.992188,504.586365 
	C786.409119,493.920868 794.770264,484.818726 807.988708,482.707458 
	C812.153137,482.042267 816.664795,482.991272 820.931335,483.711823 
	C824.004639,484.230896 824.257874,486.811951 823.780273,489.526764 
	C823.102478,493.379425 822.574280,497.258453 821.957947,501.554291 
	C818.251587,510.977661 815.119751,520.251221 810.746948,528.897217 
	C805.360107,539.548279 798.905151,549.546997 786.958618,554.394226 
	C779.142578,557.565613 771.676392,553.574402 770.015137,545.294434 
	C767.042175,530.476257 772.229858,517.557556 778.992188,504.586365 
z"/>
<path fill="#000000" opacity="1.000000" stroke="none" 
	d="
M553.912842,505.389862 
	C556.816467,496.783020 560.482178,489.051971 566.886230,482.829254 
	C574.134705,475.785980 582.078674,476.087982 588.265930,484.016663 
	C592.863098,489.907776 594.842041,496.729919 595.048096,504.566284 
	C595.302551,518.066406 594.796570,530.937744 589.118896,543.197449 
	C585.662170,550.661499 581.193359,556.690308 573.573181,560.117676 
	C568.994019,562.177246 560.821838,560.255737 557.736938,556.006348 
	C550.914734,546.608948 549.016541,535.876526 550.294983,524.618225 
	C551.014282,518.283630 552.685791,512.057190 553.912842,505.389862 
z"/>
<path fill="#000000" opacity="1.000000" stroke="none" 
	d="
M1130.193604,329.884949 
	C1129.784912,329.529755 1129.549194,329.066345 1129.313477,328.602936 
	C1129.667114,328.765350 1130.020630,328.927795 1130.530762,329.307373 
	C1130.687134,329.524536 1130.366455,329.776672 1130.193604,329.884949 
z"/>
<path fill="#FE9102" opacity="1.000000" stroke="none" 
	d="
M1050.998535,528.760742 
	C1055.062866,528.922302 1059.131104,529.464539 1063.633301,530.049194 
	C1062.827393,534.381958 1059.032349,535.341858 1055.534302,535.672180 
	C1051.017944,536.098755 1051.011841,532.390442 1050.998535,528.760742 
z"/>
<path fill="#FEBA04" opacity="1.000000" stroke="none" 
	d="
M1089.114990,475.930786 
	C1089.557251,477.655365 1089.646606,479.440704 1089.709229,481.673584 
	C1086.068359,481.410278 1082.453979,480.699432 1078.415283,479.968079 
	C1078.248535,479.290527 1078.389038,478.147614 1078.782227,478.052826 
	C1082.082642,477.256927 1085.429199,476.653168 1089.114990,475.930786 
z"/>
</svg>